<svg width="49" height="32" viewBox="0 0 49 32" fill="none" xmlns="http://www.w3.org/2000/svg">
<path fill-rule="evenodd" clip-rule="evenodd" d="M3.35626 31.5405C1.49892 31.5405 0 30.0308 0 28.16V3.38051C0 1.50974 1.49892 0 3.35626 0H15.6734C26.8826 0 26.8826 14.6708 20.1375 14.6708C26.85 14.6708 29.0984 31.5733 15.6734 31.5733H3.35626V31.5405ZM7.82039 13.5221C7.20128 13.5221 6.7125 13.0297 6.7125 12.4062V5.61231C6.7125 4.98872 7.20128 4.49641 7.82039 4.49641H13.425C13.425 4.49641 17.8891 4.49641 17.8891 8.99282C17.8891 13.4892 13.425 13.4892 13.425 13.4892H7.82039V13.5221ZM7.82039 18.0185C7.20128 18.0185 6.7125 18.5108 6.7125 19.1344V25.8954C6.7125 26.519 7.20128 27.0113 7.82039 27.0113H15.6408C15.6408 27.0113 18.997 27.0113 18.997 22.5149C18.997 18.0185 15.6408 18.0185 15.6408 18.0185H7.82039Z" fill="white"/>
<path fill-rule="evenodd" clip-rule="evenodd" d="M45.8796 20.2831C47.7369 20.2831 49.301 18.7405 48.91 16.9025C46.1077 3.41331 26.6545 4.66049 26.85 20.2831C27.0129 32.1641 43.5009 35.9713 48.356 25.2061C49.1381 23.4995 47.4111 22.5148 45.9773 22.5148C44.7065 22.5148 43.729 23.6964 42.9143 24.681C40.5682 27.5036 33.4973 27.3066 32.5523 21.4318C32.4546 20.8082 32.9759 20.2831 33.5951 20.2831H45.8796ZM33.1714 15.7538C32.8456 15.7538 32.6175 15.3928 32.813 15.1302C35.1917 11.3559 40.8941 11.3887 43.3054 15.1302C43.5009 15.4256 43.2728 15.7538 42.9469 15.7538H33.1714Z" fill="white"/>
<path d="M33.5625 2.23169C32.3243 2.23169 31.3141 3.24913 31.3141 4.4963C31.3141 5.74348 32.3243 6.76092 33.5625 6.76092H42.5234C43.7616 6.76092 44.7717 5.74348 44.7717 4.4963C44.7717 3.24913 43.7616 2.23169 42.5234 2.23169H33.5625Z" fill="white"/>
</svg>
