<svg width="183" height="79" viewBox="0 0 183 79" fill="none" xmlns="http://www.w3.org/2000/svg">
<g clip-path="url(#clip0_21_427)">
<path d="M37.6169 63.5932C33.0549 64.5939 28.4373 65.1151 23.7639 64.8579C17.6 64.5174 11.8123 63.0025 6.79764 59.2012C-0.543257 53.6278 -2.08248 45.4901 2.88342 37.7277C6.01758 32.8285 10.6561 29.736 15.9354 27.3315C15.5106 28.089 15.4967 28.0682 14.7096 28.5963C11.5407 30.7159 8.96369 33.3844 7.24338 36.8174C4.55497 42.1684 6.4285 47.2553 10.2313 50.7438C14.1455 54.3366 18.9512 55.9697 24.0843 56.5952C35.423 57.9711 45.9746 55.6501 55.5651 49.3679C58.7341 47.29 61.4225 44.6771 63.2125 41.2927C65.1417 37.6513 65.6711 33.857 64.097 29.9167C64.0134 29.7082 63.9856 29.4789 63.9368 29.2496C64.5079 29.0689 64.6821 29.5067 64.9258 29.743C70.0937 34.8716 71.013 41.4665 67.4471 48.6799C65.086 53.4471 61.5688 57.3249 57.4456 60.6188C48.858 67.4917 39.1282 72.0018 28.3328 74.1909C27.4413 74.3716 26.5289 74.4411 25.6165 74.5453C25.129 74.6009 24.6136 74.6078 24.335 74.1144C24.0564 73.6141 24.3559 73.1624 24.6414 72.7871C25.9787 70.9942 27.7199 69.6252 29.5168 68.3395C32.052 66.5327 34.7474 64.9622 37.6169 63.5932Z" fill="url(#paint0_linear_21_427)"/>
<path d="M7.82145 74.0728C4.42959 74.0797 4.42959 74.0797 4.99374 70.7788C5.537 67.6238 5.537 67.6238 8.79652 67.6307C12.2371 67.6377 12.2232 67.6377 11.673 71.0776C11.1367 74.4897 11.3805 74.038 7.82145 74.0728Z" fill="url(#paint1_linear_21_427)"/>
<path d="M14.6539 78.9999C12.1814 79.0068 12.1814 79.0068 12.5993 76.6024C12.9963 74.3091 12.9963 74.3091 15.3712 74.3091C17.8786 74.316 17.8646 74.3091 17.4677 76.8178C17.0707 79.3057 17.2517 78.9721 14.6539 78.9999Z" fill="white"/>
<path d="M19.1323 71.9115C16.4369 71.9184 16.4369 71.9184 16.8896 69.2916C17.3214 66.7898 17.3214 66.7898 19.9123 66.7898C22.6495 66.7967 22.6356 66.7898 22.1968 69.5278C21.765 72.2381 21.96 71.8837 19.1323 71.9115Z" fill="white"/>
<path d="M63.4076 0.63933C52.0967 4.30858 42.4087 10.1877 35.026 19.1176L29.1686 20.7785C29.0433 20.8132 28.9318 20.8549 28.8134 20.8966C27.3996 21.3136 26.0693 21.7514 24.7599 22.2518C23.9102 22.5714 23.353 23.2316 22.8446 23.9474C19.7801 28.249 16.7156 32.5437 13.665 36.8592C13.3655 37.2832 12.871 37.6723 12.9894 38.4298C16.5136 37.4499 19.9403 36.5118 23.353 35.5458C24.2654 35.2887 25.0664 35.0385 25.7419 36.0809C26.4175 37.1233 26.0345 37.8391 25.3728 38.6383C23.9381 40.3826 22.5381 42.1477 21.1521 43.9267C20.1353 45.2332 20.2258 45.4139 21.8068 45.664C23.4853 45.9351 25.1639 45.7822 26.8493 45.81C28.5836 45.8378 28.7925 46.1713 28.1727 47.8183C27.6085 49.3124 26.71 50.6259 25.9161 51.9949C25.1987 53.2319 25.2544 53.357 26.6265 53.3709C28.2632 53.3848 29.8999 53.3361 31.5297 53.3778C32.5674 53.4056 33.3823 53.0442 34.1136 52.3424C35.6041 50.9177 37.1363 49.5279 38.6407 48.1102C39.1631 47.6168 39.6994 47.2832 40.4446 47.6168C41.155 47.9365 40.9879 48.5758 40.96 49.1179C40.8904 50.6259 40.765 52.1339 40.6396 53.8782C44.7628 51.5293 48.677 49.3124 52.5773 47.0748C53.2807 46.6717 53.5733 45.949 53.7822 45.1776C54.3464 43.0789 54.5274 40.9246 54.611 38.7703C54.6528 37.6584 54.9801 36.7828 55.7115 35.9141C63.519 26.6159 67.1477 15.7402 67.6143 3.73873C67.7675 -0.243235 67.2591 -0.61155 63.4076 0.63933ZM54.2558 21.3205C51.5604 21.2997 49.6939 19.4025 49.6799 16.6645C49.666 13.8778 51.6719 11.8625 54.4648 11.8556C57.195 11.8486 59.1869 13.8083 59.2287 16.5394C59.2635 19.34 57.188 21.3414 54.2558 21.3205Z" fill="white"/>
<path d="M77.4904 35.8932V12.5435H95.4456C97.8972 12.5435 99.7429 13.0925 100.976 14.1974C102.215 15.2954 102.828 16.7617 102.828 18.5824C102.828 19.4928 102.64 20.3545 102.257 21.1676C101.881 21.9806 101.247 22.6756 100.37 23.2524C99.4921 23.8292 98.2942 24.2322 96.7759 24.4546V25.1217C98.2942 25.3441 99.4921 25.6638 100.37 26.0877C101.247 26.5116 101.881 27.0884 102.257 27.825C102.633 28.5617 102.828 29.5137 102.828 30.6951V35.9002H93.2656V31.6611C93.2656 30.1044 92.4856 29.3261 90.9254 29.3261H87.0461V35.9002H77.4904V35.8932ZM87.053 22.5852H91.9702C92.395 22.5852 92.7293 22.4463 92.9731 22.1683C93.2169 21.8903 93.3422 21.5428 93.3422 21.1189C93.3422 20.6742 93.2169 20.3198 92.9731 20.0487C92.7293 19.7847 92.395 19.6457 91.9702 19.6457H87.053V22.5852Z" fill="url(#paint2_linear_21_427)"/>
<path d="M104.437 29.5901V23.1829H118.478V29.5901H104.437Z" fill="url(#paint3_linear_21_427)"/>
<path d="M124.092 35.8932V20.285H117.204V12.5435H140.306V20.285H133.452V35.8932H124.092Z" fill="url(#paint4_linear_21_427)"/>
<path d="M148.796 36.4284C146.72 36.4284 144.889 36.0809 143.294 35.393C141.699 34.705 140.452 33.739 139.547 32.509C138.641 31.279 138.195 29.8682 138.195 28.2907V26.8244C138.195 25.2469 138.648 23.8432 139.547 22.6201C140.452 21.397 141.699 20.438 143.294 19.7361C144.889 19.0342 146.72 18.6868 148.796 18.6868C150.871 18.6868 152.703 19.0342 154.298 19.7361C155.893 20.438 157.14 21.397 158.045 22.6201C158.951 23.8432 159.396 25.2469 159.396 26.8244V28.2907C159.396 29.8682 158.944 31.279 158.045 32.509C157.147 33.739 155.893 34.705 154.298 35.393C152.703 36.0809 150.871 36.4284 148.796 36.4284ZM148.796 30.3894C149.444 30.3894 149.98 30.181 150.398 29.771C150.823 29.3609 151.032 28.8675 151.032 28.2838V26.8175C151.032 26.2407 150.823 25.7473 150.398 25.3303C149.973 24.9203 149.437 24.7118 148.796 24.7118C148.169 24.7118 147.64 24.9203 147.208 25.3303C146.776 25.7403 146.553 26.2337 146.553 26.8175V28.2838C146.553 28.8606 146.769 29.354 147.208 29.771C147.647 30.1879 148.176 30.3894 148.796 30.3894Z" fill="url(#paint5_linear_21_427)"/>
<path d="M161.068 42.5645V19.2148H169.426V22.3142H169.69C170.268 21.1328 171.062 20.2363 172.065 19.6109C173.068 18.9855 174.217 18.6797 175.506 18.6797C176.934 18.6797 178.208 19.0272 179.337 19.7151C180.465 20.4031 181.356 21.3621 182.011 22.5852C182.666 23.8083 183 25.219 183 26.8243V28.2906C183 29.8681 182.673 31.2719 182.011 32.495C181.356 33.718 180.465 34.677 179.337 35.3789C178.208 36.0808 176.934 36.4283 175.506 36.4283C174.238 36.4283 173.103 36.1156 172.114 35.4971C171.125 34.8716 170.338 34.0377 169.76 32.9953V42.5715H161.068V42.5645ZM172.065 30.3893C172.713 30.3893 173.256 30.1808 173.702 29.7708C174.148 29.3608 174.371 28.8674 174.371 28.2837V26.8174C174.371 26.2406 174.148 25.7472 173.702 25.3302C173.256 24.9202 172.713 24.7117 172.065 24.7117C171.397 24.7117 170.846 24.9202 170.408 25.3302C169.976 25.7402 169.753 26.2336 169.753 26.8174V28.2837C169.753 28.8605 169.969 29.3539 170.408 29.7708C170.846 30.1878 171.397 30.3893 172.065 30.3893Z" fill="url(#paint6_linear_21_427)"/>
<path d="M77.156 65.9144V48.4021H86.1058C88.1256 48.4021 89.9155 48.7426 91.4617 49.4306C93.0079 50.1116 94.2198 51.0637 95.0973 52.2729C95.9749 53.4821 96.4137 54.8719 96.4137 56.4355V57.8879C96.4137 59.4585 95.9749 60.8414 95.0973 62.0506C94.2198 63.2598 93.0079 64.2049 91.4617 64.8929C89.9155 65.5739 88.1325 65.9214 86.1058 65.9214H77.156V65.9144ZM84.1765 60.2577H86.1058C86.9415 60.2577 87.638 60.0144 88.2022 59.5349C88.7594 59.0485 89.0449 58.4578 89.0449 57.7559V56.5537C89.0449 55.8518 88.7663 55.2611 88.2022 54.7746C87.645 54.2882 86.9415 54.0519 86.1058 54.0519H84.1765V60.2577Z" fill="url(#paint7_linear_21_427)"/>
<path d="M97.5629 52.1547V48.4021H104.486V52.1547H97.5629ZM97.7648 65.9144V53.4056H104.284V65.9144H97.7648Z" fill="url(#paint8_linear_21_427)"/>
<path d="M111.151 65.4139C110.1 65.4139 109.145 65.1499 108.296 64.6287C107.446 64.1005 106.77 63.3847 106.276 62.4674C105.781 61.5501 105.538 60.5008 105.538 59.3124V59.1109C105.538 57.9087 105.781 56.8524 106.276 55.9351C106.77 55.0177 107.439 54.302 108.296 53.7808C109.145 53.2665 110.1 53.0024 111.151 53.0024C112.119 53.0024 112.983 53.2387 113.735 53.7043C114.487 54.1699 115.079 54.844 115.518 55.7335H115.72V53.4055H121.988V65.7406C121.988 66.8594 121.661 67.8393 121.013 68.6801C120.359 69.521 119.439 70.1742 118.241 70.6329C117.043 71.0916 115.63 71.3209 113.993 71.3209C111.722 71.3209 109.898 70.9456 108.526 70.1951C107.153 69.4446 106.325 68.3883 106.046 67.0192L112.036 66.2201C112.189 66.5536 112.412 66.8177 112.711 67.0053C113.011 67.193 113.345 67.2903 113.714 67.2903C114.118 67.2903 114.508 67.186 114.891 66.9775C115.274 66.7691 115.469 66.3591 115.469 65.7406V62.8357C115.038 63.621 114.446 64.2465 113.7 64.7121C112.955 65.1846 112.105 65.4139 111.151 65.4139ZM113.735 60.8899C114.237 60.8899 114.648 60.737 114.975 60.4243C115.302 60.1186 115.462 59.7433 115.462 59.3124V59.1109C115.462 58.68 115.302 58.3048 114.975 57.999C114.648 57.6932 114.237 57.5334 113.735 57.5334C113.269 57.5334 112.865 57.6863 112.516 57.999C112.175 58.3048 112.001 58.68 112.001 59.1109V59.3124C112.001 59.7433 112.175 60.1186 112.516 60.4243C112.865 60.7301 113.269 60.8899 113.735 60.8899Z" fill="url(#paint9_linear_21_427)"/>
<path d="M123.493 52.1547V48.4021H130.416V52.1547H123.493ZM123.688 65.9144V53.4056H130.207V65.9144H123.688Z" fill="url(#paint10_linear_21_427)"/>
<path d="M131.391 58.159V53.4056H133.397V50.9039L139.916 48.4021V53.4056H143.301V58.159H139.916V60.2577C139.916 60.7233 140.048 61.0568 140.32 61.2584C140.584 61.4599 140.912 61.5572 141.295 61.5572C141.615 61.5572 141.95 61.5085 142.298 61.4043C142.646 61.3001 142.98 61.1819 143.301 61.029V65.4558C142.548 65.7407 141.81 65.9492 141.079 66.0951C140.355 66.2341 139.651 66.3105 138.983 66.3105C137.91 66.3105 136.956 66.1229 136.113 65.7476C135.27 65.3724 134.602 64.8025 134.121 64.045C133.634 63.2876 133.397 62.3494 133.397 61.2306V58.152H131.391V58.159Z" fill="url(#paint11_linear_21_427)"/>
<path d="M149.792 66.3175C148.74 66.3175 147.786 66.0604 146.936 65.5392C146.087 65.0249 145.411 64.3022 144.916 63.3779C144.422 62.4537 144.178 61.3974 144.178 60.216V59.118C144.178 57.9158 144.422 56.8595 144.916 55.9421C145.411 55.0248 146.08 54.309 146.936 53.7878C147.786 53.2736 148.74 53.0095 149.792 53.0095C150.76 53.0095 151.624 53.2458 152.376 53.7114C153.128 54.177 153.72 54.8511 154.159 55.7406H154.361V53.4126H160.629V65.9214H154.361V63.5864H154.159C153.727 64.469 153.128 65.1431 152.376 65.6156C151.624 66.0812 150.76 66.3175 149.792 66.3175ZM152.376 61.7865C152.877 61.7865 153.288 61.6336 153.616 61.3209C153.943 61.0152 154.103 60.6399 154.103 60.209V59.111C154.103 58.6802 153.943 58.3049 153.616 57.9991C153.288 57.6934 152.877 57.5335 152.376 57.5335C151.909 57.5335 151.505 57.6864 151.157 57.9991C150.816 58.3049 150.642 58.6802 150.642 59.111V60.209C150.642 60.6399 150.816 61.0152 151.157 61.3209C151.498 61.6336 151.909 61.7865 152.376 61.7865Z" fill="url(#paint12_linear_21_427)"/>
<path d="M162.328 65.9144V48.4021H168.848V65.9144H162.328Z" fill="url(#paint13_linear_21_427)"/>
<path d="M77.4902 35.8932V12.5435H95.4455C97.8971 12.5435 99.7428 13.0925 100.976 14.1974C102.215 15.2954 102.828 16.7617 102.828 18.5824C102.828 19.4928 102.64 20.3545 102.257 21.1676C101.881 21.9806 101.247 22.6756 100.37 23.2524C99.492 23.8292 98.2941 24.2322 96.7757 24.4546V25.1217C98.2941 25.3441 99.492 25.6638 100.37 26.0877C101.247 26.5116 101.881 27.0884 102.257 27.825C102.633 28.5617 102.828 29.5137 102.828 30.6951V35.9002H93.2655V31.6611C93.2655 30.1044 92.4854 29.3261 90.9253 29.3261H87.0459V35.9002H77.4902V35.8932ZM87.0529 22.5852H91.97C92.3949 22.5852 92.7292 22.4463 92.973 22.1683C93.2167 21.8903 93.3421 21.5428 93.3421 21.1189C93.3421 20.6742 93.2167 20.3198 92.973 20.0487C92.7292 19.7847 92.3949 19.6457 91.97 19.6457H87.0529V22.5852Z" fill="black"/>
<path d="M104.437 29.5901V23.1829H118.478V29.5901H104.437Z" fill="black"/>
<path d="M124.092 35.8932V20.285H117.203V12.5435H140.306V20.285H133.452V35.8932H124.092Z" fill="black"/>
<path d="M148.796 36.4284C146.72 36.4284 144.889 36.0809 143.294 35.393C141.699 34.705 140.452 33.739 139.547 32.509C138.641 31.279 138.195 29.8682 138.195 28.2907V26.8244C138.195 25.2469 138.648 23.8432 139.547 22.6201C140.452 21.397 141.699 20.438 143.294 19.7361C144.889 19.0342 146.72 18.6868 148.796 18.6868C150.871 18.6868 152.703 19.0342 154.298 19.7361C155.893 20.438 157.14 21.397 158.045 22.6201C158.951 23.8432 159.396 25.2469 159.396 26.8244V28.2907C159.396 29.8682 158.944 31.279 158.045 32.509C157.147 33.739 155.893 34.705 154.298 35.393C152.703 36.0809 150.871 36.4284 148.796 36.4284ZM148.796 30.3894C149.444 30.3894 149.98 30.181 150.398 29.771C150.823 29.3609 151.032 28.8675 151.032 28.2838V26.8175C151.032 26.2407 150.823 25.7473 150.398 25.3303C149.973 24.9203 149.437 24.7118 148.796 24.7118C148.169 24.7118 147.64 24.9203 147.208 25.3303C146.776 25.7403 146.553 26.2337 146.553 26.8175V28.2838C146.553 28.8606 146.769 29.354 147.208 29.771C147.647 30.1879 148.176 30.3894 148.796 30.3894Z" fill="black"/>
<path d="M161.068 42.5645V19.2148H169.426V22.3142H169.69C170.268 21.1328 171.062 20.2363 172.065 19.6109C173.068 18.9855 174.217 18.6797 175.506 18.6797C176.934 18.6797 178.208 19.0272 179.336 19.7151C180.465 20.4031 181.356 21.3621 182.011 22.5852C182.666 23.8083 183 25.219 183 26.8243V28.2906C183 29.8681 182.673 31.2719 182.011 32.495C181.356 33.718 180.465 34.677 179.336 35.3789C178.208 36.0808 176.934 36.4283 175.506 36.4283C174.238 36.4283 173.103 36.1156 172.114 35.4971C171.125 34.8716 170.338 34.0377 169.76 32.9953V42.5715H161.068V42.5645ZM172.065 30.3893C172.713 30.3893 173.256 30.1808 173.702 29.7708C174.148 29.3608 174.371 28.8674 174.371 28.2837V26.8174C174.371 26.2406 174.148 25.7472 173.702 25.3302C173.256 24.9202 172.713 24.7117 172.065 24.7117C171.397 24.7117 170.846 24.9202 170.408 25.3302C169.976 25.7402 169.753 26.2336 169.753 26.8174V28.2837C169.753 28.8605 169.969 29.3539 170.408 29.7708C170.846 30.1878 171.397 30.3893 172.065 30.3893Z" fill="black"/>
<path d="M76.4595 65.9144V48.4021H85.4092C87.429 48.4021 89.219 48.7426 90.7652 49.4306C92.3114 50.1116 93.5232 51.0637 94.4008 52.2729C95.2783 53.4821 95.7171 54.8719 95.7171 56.4355V57.8879C95.7171 59.4585 95.2783 60.8414 94.4008 62.0506C93.5232 63.2598 92.3114 64.2049 90.7652 64.8929C89.219 65.5739 87.436 65.9214 85.4092 65.9214H76.4595V65.9144ZM83.48 60.2577H85.4092C86.245 60.2577 86.9415 60.0144 87.5056 59.5349C88.0628 59.0485 88.3484 58.4578 88.3484 57.7559V56.5537C88.3484 55.8518 88.0698 55.2611 87.5056 54.7746C86.9485 54.2882 86.245 54.0519 85.4092 54.0519H83.48V60.2577Z" fill="white"/>
<path d="M97.5627 52.1547V48.4021H104.486V52.1547H97.5627ZM97.7647 65.9144V53.4056H104.284V65.9144H97.7647Z" fill="white"/>
<path d="M111.151 65.4139C110.099 65.4139 109.145 65.1499 108.296 64.6287C107.446 64.1005 106.77 63.3847 106.276 62.4674C105.781 61.5501 105.537 60.5008 105.537 59.3124V59.1109C105.537 57.9087 105.781 56.8524 106.276 55.9351C106.77 55.0177 107.439 54.302 108.296 53.7808C109.145 53.2665 110.099 53.0024 111.151 53.0024C112.119 53.0024 112.983 53.2387 113.735 53.7043C114.487 54.1699 115.079 54.844 115.518 55.7335H115.72V53.4055H121.988V65.7406C121.988 66.8594 121.661 67.8393 121.013 68.6801C120.359 69.521 119.439 70.1742 118.241 70.6329C117.043 71.0916 115.629 71.3209 113.993 71.3209C111.722 71.3209 109.897 70.9456 108.525 70.1951C107.153 69.4446 106.324 68.3883 106.046 67.0192L112.036 66.2201C112.189 66.5536 112.412 66.8177 112.711 67.0053C113.011 67.193 113.345 67.2903 113.714 67.2903C114.118 67.2903 114.508 67.186 114.891 66.9775C115.274 66.7691 115.469 66.3591 115.469 65.7406V62.8357C115.037 63.621 114.445 64.2465 113.7 64.7121C112.955 65.1846 112.105 65.4139 111.151 65.4139ZM113.735 60.8899C114.237 60.8899 114.647 60.737 114.975 60.4243C115.302 60.1186 115.462 59.7433 115.462 59.3124V59.1109C115.462 58.68 115.302 58.3048 114.975 57.999C114.647 57.6932 114.237 57.5334 113.735 57.5334C113.268 57.5334 112.864 57.6863 112.516 57.999C112.175 58.3048 112.001 58.68 112.001 59.1109V59.3124C112.001 59.7433 112.175 60.1186 112.516 60.4243C112.864 60.7301 113.268 60.8899 113.735 60.8899Z" fill="white"/>
<path d="M123.493 52.1547V48.4021H130.416V52.1547H123.493ZM123.688 65.9144V53.4056H130.207V65.9144H123.688Z" fill="white"/>
<path d="M131.391 58.159V53.4056H133.397V50.9039L139.916 48.4021V53.4056H143.301V58.159H139.916V60.2577C139.916 60.7233 140.048 61.0568 140.32 61.2584C140.584 61.4599 140.912 61.5572 141.295 61.5572C141.615 61.5572 141.95 61.5085 142.298 61.4043C142.646 61.3001 142.98 61.1819 143.301 61.029V65.4558C142.548 65.7407 141.81 65.9492 141.079 66.0951C140.355 66.2341 139.651 66.3105 138.983 66.3105C137.91 66.3105 136.956 66.1229 136.113 65.7476C135.27 65.3724 134.602 64.8025 134.121 64.045C133.634 63.2876 133.397 62.3494 133.397 61.2306V58.152H131.391V58.159Z" fill="white"/>
<path d="M149.792 66.3175C148.74 66.3175 147.786 66.0604 146.936 65.5392C146.087 65.0249 145.411 64.3022 144.916 63.3779C144.422 62.4537 144.178 61.3974 144.178 60.216V59.118C144.178 57.9158 144.422 56.8595 144.916 55.9421C145.411 55.0248 146.08 54.309 146.936 53.7878C147.786 53.2736 148.74 53.0095 149.792 53.0095C150.76 53.0095 151.624 53.2458 152.376 53.7114C153.128 54.177 153.72 54.8511 154.159 55.7406H154.361V53.4126H160.629V65.9214H154.361V63.5864H154.159C153.727 64.469 153.128 65.1431 152.376 65.6156C151.624 66.0812 150.76 66.3175 149.792 66.3175ZM152.376 61.7865C152.877 61.7865 153.288 61.6336 153.616 61.3209C153.943 61.0152 154.103 60.6399 154.103 60.209V59.111C154.103 58.6802 153.943 58.3049 153.616 57.9991C153.288 57.6934 152.877 57.5335 152.376 57.5335C151.909 57.5335 151.505 57.6864 151.157 57.9991C150.816 58.3049 150.642 58.6802 150.642 59.111V60.209C150.642 60.6399 150.816 61.0152 151.157 61.3209C151.498 61.6336 151.909 61.7865 152.376 61.7865Z" fill="white"/>
<path d="M162.328 65.9144V48.4021H168.848V65.9144H162.328Z" fill="white"/>
</g>
<defs>
<linearGradient id="paint0_linear_21_427" x1="-3.39088e-06" y1="50.9501" x2="69.5782" y2="50.9501" gradientUnits="userSpaceOnUse">
<stop offset="1.24826e-07" stop-color="#EE7116"/>
<stop offset="1" stop-color="#F9AE17"/>
</linearGradient>
<linearGradient id="paint1_linear_21_427" x1="4.71174" y1="70.8549" x2="11.9486" y2="70.8549" gradientUnits="userSpaceOnUse">
<stop stop-color="#EE7116"/>
<stop offset="1" stop-color="#EE7316"/>
</linearGradient>
<linearGradient id="paint2_linear_21_427" x1="77.1558" y1="41.9315" x2="182.998" y2="41.9315" gradientUnits="userSpaceOnUse">
<stop stop-color="#203C89"/>
<stop offset="1" stop-color="#0B4C98"/>
</linearGradient>
<linearGradient id="paint3_linear_21_427" x1="77.1557" y1="41.9315" x2="182.998" y2="41.9315" gradientUnits="userSpaceOnUse">
<stop stop-color="#203C89"/>
<stop offset="1" stop-color="#0B4C98"/>
</linearGradient>
<linearGradient id="paint4_linear_21_427" x1="77.1558" y1="41.9315" x2="182.998" y2="41.9315" gradientUnits="userSpaceOnUse">
<stop stop-color="#203C89"/>
<stop offset="1" stop-color="#0B4C98"/>
</linearGradient>
<linearGradient id="paint5_linear_21_427" x1="77.1557" y1="41.9316" x2="182.997" y2="41.9316" gradientUnits="userSpaceOnUse">
<stop stop-color="#203C89"/>
<stop offset="1" stop-color="#0B4C98"/>
</linearGradient>
<linearGradient id="paint6_linear_21_427" x1="77.1557" y1="41.9315" x2="182.998" y2="41.9315" gradientUnits="userSpaceOnUse">
<stop stop-color="#203C89"/>
<stop offset="1" stop-color="#0B4C98"/>
</linearGradient>
<linearGradient id="paint7_linear_21_427" x1="77.1557" y1="41.9316" x2="182.997" y2="41.9316" gradientUnits="userSpaceOnUse">
<stop stop-color="#203C89"/>
<stop offset="1" stop-color="#0B4C98"/>
</linearGradient>
<linearGradient id="paint8_linear_21_427" x1="77.1557" y1="41.9316" x2="182.998" y2="41.9316" gradientUnits="userSpaceOnUse">
<stop stop-color="#203C89"/>
<stop offset="1" stop-color="#0B4C98"/>
</linearGradient>
<linearGradient id="paint9_linear_21_427" x1="77.1558" y1="41.9315" x2="182.998" y2="41.9315" gradientUnits="userSpaceOnUse">
<stop stop-color="#203C89"/>
<stop offset="1" stop-color="#0B4C98"/>
</linearGradient>
<linearGradient id="paint10_linear_21_427" x1="77.1557" y1="41.9316" x2="182.998" y2="41.9316" gradientUnits="userSpaceOnUse">
<stop stop-color="#203C89"/>
<stop offset="1" stop-color="#0B4C98"/>
</linearGradient>
<linearGradient id="paint11_linear_21_427" x1="77.1557" y1="41.9316" x2="182.998" y2="41.9316" gradientUnits="userSpaceOnUse">
<stop stop-color="#203C89"/>
<stop offset="1" stop-color="#0B4C98"/>
</linearGradient>
<linearGradient id="paint12_linear_21_427" x1="77.1557" y1="41.9316" x2="182.998" y2="41.9316" gradientUnits="userSpaceOnUse">
<stop stop-color="#203C89"/>
<stop offset="1" stop-color="#0B4C98"/>
</linearGradient>
<linearGradient id="paint13_linear_21_427" x1="77.1559" y1="41.9316" x2="182.997" y2="41.9316" gradientUnits="userSpaceOnUse">
<stop stop-color="#203C89"/>
<stop offset="1" stop-color="#0B4C98"/>
</linearGradient>
<clipPath id="clip0_21_427">
<rect width="183" height="79" fill="white"/>
</clipPath>
</defs>
</svg>
