<svg width="313" height="135" viewBox="0 0 313 135" fill="none" xmlns="http://www.w3.org/2000/svg">
<g clip-path="url(#clip0_21_462)">
<path d="M64.3393 108.672C56.5366 110.382 48.6387 111.273 40.6454 110.833C30.1029 110.252 20.2036 107.663 11.6266 101.167C-0.929091 91.6427 -3.56175 77.7366 4.93184 64.4717C10.2925 56.0995 18.2262 50.815 27.2558 46.7061C26.5291 48.0005 26.5053 47.9649 25.1592 48.8674C19.739 52.4894 15.3314 57.0496 12.389 62.916C7.79083 72.0601 10.9953 80.7529 17.4995 86.7144C24.1943 92.854 32.4139 95.6447 41.1934 96.7135C60.5869 99.0649 78.6343 95.0985 95.0377 84.3631C100.458 80.8123 105.056 76.3471 108.118 70.5638C111.417 64.3411 112.323 57.8571 109.63 51.1237C109.488 50.7675 109.44 50.3756 109.357 49.9837C110.333 49.6749 110.631 50.4231 111.048 50.8268C119.887 59.5909 121.46 70.8607 115.36 83.1874C111.322 91.334 105.306 97.9605 98.2541 103.589C83.566 115.334 66.9243 123.041 48.46 126.782C46.9352 127.091 45.3747 127.21 43.8141 127.388C42.9803 127.483 42.0987 127.495 41.6222 126.652C41.1457 125.796 41.658 125.025 42.1464 124.383C44.4336 121.319 47.4117 118.98 50.4851 116.783C54.8212 113.695 59.4314 111.012 64.3393 108.672Z" fill="#EE7116"/>
<path d="M13.3778 126.58C7.57639 126.592 7.57639 126.592 8.5413 120.951C9.47047 115.56 9.47047 115.56 15.0455 115.572C20.9303 115.584 20.9064 115.584 19.9654 121.462C19.0481 127.293 19.465 126.521 13.3778 126.58Z" fill="#EE7116"/>
<path d="M25.0639 135C20.835 135.012 20.835 135.012 21.5498 130.903C22.2288 126.984 22.2288 126.984 26.2909 126.984C30.5794 126.996 30.5556 126.984 29.8766 131.271C29.1976 135.522 29.5073 134.952 25.0639 135Z" fill="white"/>
<path d="M32.7236 122.887C28.1135 122.899 28.1135 122.899 28.8878 118.41C29.6264 114.135 29.6264 114.135 34.0578 114.135C38.7394 114.147 38.7156 114.135 37.9651 118.814C37.2265 123.445 37.5601 122.839 32.7236 122.887Z" fill="white"/>
<path d="M108.451 1.09239C89.1054 7.36263 72.5351 17.4092 59.9079 32.6692L49.8895 35.5074C49.6751 35.5668 49.4845 35.638 49.282 35.7093C46.8638 36.4218 44.5885 37.17 42.3489 38.025C40.8956 38.5713 39.9426 39.6994 39.073 40.9226C33.8315 48.2735 28.5901 55.6125 23.3724 62.9872C22.8602 63.7116 22.0144 64.3766 22.2169 65.671C28.2446 63.9966 34.1055 62.3934 39.9426 60.7427C41.5032 60.3033 42.8731 59.8758 44.0286 61.6571C45.1841 63.4384 44.5289 64.6616 43.3972 66.0273C40.9433 69.008 38.5489 72.0244 36.1783 75.0645C34.4391 77.2971 34.5939 77.6058 37.2981 78.0334C40.169 78.4965 43.0399 78.2352 45.9227 78.2827C48.8889 78.3303 49.2463 78.9003 48.1861 81.7148C47.2211 84.268 45.6844 86.5124 44.3264 88.8519C43.0994 90.9657 43.1947 91.1795 45.5415 91.2032C48.3409 91.227 51.1403 91.1438 53.9279 91.2151C55.7028 91.2626 57.0966 90.6451 58.3474 89.4457C60.8967 87.0112 63.5174 84.6361 66.0905 82.2135C66.9839 81.3704 67.9012 80.8003 69.1758 81.3704C70.3909 81.9166 70.105 83.0092 70.0573 83.9355C69.9382 86.5124 69.7238 89.0894 69.5094 92.0701C76.5615 88.0562 83.2563 84.268 89.9273 80.4441C91.1305 79.7553 91.6308 78.5203 91.9882 77.2021C92.9531 73.6157 93.2628 69.9343 93.4058 66.2529C93.4772 64.3529 94.0371 62.8566 95.2879 61.3721C108.642 45.4828 114.848 26.8977 115.646 6.38884C115.908 -0.415788 115.039 -1.04519 108.451 1.09239ZM92.7982 36.4337C88.1881 36.3981 84.9956 33.1561 84.9717 28.4772C84.9479 23.7151 88.3787 20.2712 93.1556 20.2594C97.8253 20.2475 101.232 23.5964 101.304 28.2634C101.363 33.0492 97.8134 36.4693 92.7982 36.4337Z" fill="white"/>
<path d="M132.538 61.3365V21.4351H163.248C167.442 21.4351 170.598 22.3732 172.707 24.2614C174.827 26.1377 175.876 28.6435 175.876 31.7548C175.876 33.3105 175.554 34.7831 174.899 36.1725C174.256 37.5619 173.172 38.7495 171.671 39.7351C170.17 40.7208 168.121 41.4095 165.524 41.7896V42.9296C168.121 43.3096 170.17 43.8559 171.671 44.5803C173.172 45.3047 174.256 46.2904 174.899 47.5492C175.542 48.808 175.876 50.4349 175.876 52.4537V61.3484H159.52V54.1044C159.52 51.4443 158.186 50.1143 155.517 50.1143H148.882V61.3484H132.538V61.3365ZM148.894 38.5951H157.304C158.031 38.5951 158.603 38.3576 159.019 37.8825C159.436 37.4075 159.651 36.8138 159.651 36.0894C159.651 35.3293 159.436 34.7237 159.019 34.2605C158.603 33.8093 158.031 33.5718 157.304 33.5718H148.894V38.5951Z" fill="#203C89"/>
<path d="M178.627 50.5654V39.6162H202.643V50.5654H178.627Z" fill="#203C89"/>
<path d="M212.244 61.3365V34.6643H200.463V21.4351H239.977V34.6643H228.255V61.3365H212.244Z" fill="#203C89"/>
<path d="M254.498 62.2511C250.948 62.2511 247.815 61.6573 245.087 60.4817C242.359 59.306 240.227 57.6553 238.678 55.5534C237.13 53.4514 236.367 51.0407 236.367 48.345V45.8392C236.367 43.1435 237.142 40.7447 238.678 38.6546C240.227 36.5645 242.359 34.9257 245.087 33.7263C247.815 32.5269 250.948 31.9331 254.498 31.9331C258.048 31.9331 261.181 32.5269 263.909 33.7263C266.637 34.9257 268.769 36.5645 270.318 38.6546C271.866 40.7447 272.629 43.1435 272.629 45.8392V48.345C272.629 51.0407 271.854 53.4514 270.318 55.5534C268.781 57.6553 266.637 59.306 263.909 60.4817C261.181 61.6573 258.048 62.2511 254.498 62.2511ZM254.498 51.9313C255.606 51.9313 256.523 51.5751 257.238 50.8744C257.964 50.1738 258.322 49.3306 258.322 48.3331V45.8274C258.322 44.8417 257.964 43.9986 257.238 43.286C256.511 42.5854 255.594 42.2291 254.498 42.2291C253.426 42.2291 252.52 42.5854 251.782 43.286C251.043 43.9867 250.662 44.8298 250.662 45.8274V48.3331C250.662 49.3188 251.031 50.1619 251.782 50.8744C252.532 51.587 253.438 51.9313 254.498 51.9313Z" fill="#203C89"/>
<path d="M275.488 72.7368V32.8353H289.783V38.1318H290.235C291.224 36.1129 292.582 34.581 294.297 33.5122C296.013 32.4434 297.978 31.9209 300.182 31.9209C302.624 31.9209 304.804 32.5147 306.734 33.6903C308.664 34.866 310.189 36.5048 311.308 38.5949C312.428 40.685 313 43.0957 313 45.8389V48.3446C313 51.0404 312.44 53.4392 311.308 55.5293C310.189 57.6193 308.664 59.2582 306.734 60.4576C304.804 61.657 302.624 62.2508 300.182 62.2508C298.014 62.2508 296.072 61.7164 294.381 60.6595C292.689 59.5907 291.343 58.1656 290.354 56.3843V72.7487H275.488V72.7368ZM294.297 51.931C295.405 51.931 296.334 51.5748 297.097 50.8741C297.859 50.1735 298.24 49.3303 298.24 48.3328V45.827C298.24 44.8414 297.859 43.9982 297.097 43.2857C296.334 42.585 295.405 42.2288 294.297 42.2288C293.154 42.2288 292.213 42.585 291.462 43.2857C290.724 43.9863 290.343 44.8295 290.343 45.827V48.3328C290.343 49.3184 290.712 50.1616 291.462 50.8741C292.213 51.5866 293.154 51.931 294.297 51.931Z" fill="#203C89"/>
<path d="M131.966 112.639V82.7124H147.274C150.728 82.7124 153.79 83.2943 156.435 84.47C159.079 85.6338 161.152 87.2607 162.653 89.327C164.154 91.3933 164.904 93.7684 164.904 96.4404V98.9224C164.904 101.606 164.154 103.969 162.653 106.036C161.152 108.102 159.079 109.717 156.435 110.893C153.79 112.057 150.74 112.65 147.274 112.65H131.966V112.639ZM143.974 102.972H147.274C148.703 102.972 149.895 102.556 150.859 101.737C151.812 100.906 152.301 99.8962 152.301 98.6967V96.6423C152.301 95.4429 151.824 94.4335 150.859 93.6022C149.906 92.7709 148.703 92.3671 147.274 92.3671H143.974V102.972Z" fill="#203C89"/>
<path d="M166.87 89.1251V82.7124H178.711V89.1251H166.87ZM167.215 112.639V91.2627H178.365V112.639H167.215Z" fill="#203C89"/>
<path d="M190.111 111.783C188.312 111.783 186.68 111.332 185.227 110.441C183.774 109.539 182.618 108.316 181.772 106.748C180.927 105.181 180.51 103.387 180.51 101.357V101.012C180.51 98.9578 180.927 97.1527 181.772 95.5852C182.618 94.0176 183.762 92.7944 185.227 91.9038C186.68 91.025 188.312 90.5737 190.111 90.5737C191.767 90.5737 193.244 90.9775 194.531 91.7732C195.817 92.5688 196.83 93.7207 197.58 95.2408H197.926V91.2625H208.647V112.341C208.647 114.253 208.087 115.928 206.979 117.365C205.859 118.802 204.287 119.918 202.238 120.702C200.189 121.486 197.771 121.877 194.971 121.877C191.088 121.877 187.967 121.236 185.62 119.954C183.273 118.671 181.856 116.866 181.379 114.526L191.624 113.161C191.886 113.731 192.267 114.182 192.779 114.503C193.292 114.823 193.864 114.99 194.495 114.99C195.186 114.99 195.853 114.812 196.508 114.455C197.163 114.099 197.497 113.398 197.497 112.341V107.377C196.758 108.719 195.746 109.788 194.471 110.584C193.196 111.391 191.743 111.783 190.111 111.783ZM194.531 104.052C195.388 104.052 196.091 103.791 196.651 103.257C197.211 102.734 197.485 102.093 197.485 101.357V101.012C197.485 100.276 197.211 99.6347 196.651 99.1122C196.091 98.5897 195.388 98.3165 194.531 98.3165C193.732 98.3165 193.042 98.5778 192.446 99.1122C191.862 99.6347 191.564 100.276 191.564 101.012V101.357C191.564 102.093 191.862 102.734 192.446 103.257C193.042 103.779 193.732 104.052 194.531 104.052Z" fill="#203C89"/>
<path d="M211.22 89.1251V82.7124H223.061V89.1251H211.22ZM211.554 112.639V91.2627H222.704V112.639H211.554Z" fill="#203C89"/>
<path d="M224.729 99.3855V91.2627H228.159V86.9876L239.31 82.7124V91.2627H245.099V99.3855H239.31V102.972C239.31 103.768 239.536 104.338 240 104.682C240.453 105.026 241.013 105.193 241.668 105.193C242.216 105.193 242.788 105.109 243.384 104.931C243.979 104.753 244.551 104.551 245.099 104.29V111.855C243.812 112.342 242.55 112.698 241.299 112.947C240.06 113.185 238.857 113.315 237.713 113.315C235.879 113.315 234.247 112.995 232.805 112.353C231.364 111.712 230.22 110.738 229.398 109.444C228.564 108.15 228.159 106.546 228.159 104.634V99.3736H224.729V99.3855Z" fill="#203C89"/>
<path d="M256.201 113.327C254.403 113.327 252.771 112.888 251.317 111.997C249.864 111.119 248.708 109.884 247.863 108.304C247.017 106.725 246.6 104.92 246.6 102.901V101.024C246.6 98.97 247.017 97.1649 247.863 95.5974C248.708 94.0298 249.852 92.8066 251.317 91.916C252.771 91.0372 254.403 90.5859 256.201 90.5859C257.857 90.5859 259.334 90.9897 260.621 91.7854C261.907 92.581 262.92 93.7329 263.671 95.253H264.016V91.2747H274.737V112.651H264.016V108.66H263.671C262.932 110.169 261.907 111.32 260.621 112.128C259.334 112.924 257.857 113.327 256.201 113.327ZM260.621 105.585C261.479 105.585 262.181 105.323 262.741 104.789C263.301 104.266 263.575 103.625 263.575 102.889V101.013C263.575 100.276 263.301 99.635 262.741 99.1125C262.181 98.59 261.479 98.3169 260.621 98.3169C259.823 98.3169 259.132 98.5781 258.536 99.1125C257.953 99.635 257.655 100.276 257.655 101.013V102.889C257.655 103.625 257.953 104.266 258.536 104.789C259.12 105.323 259.823 105.585 260.621 105.585Z" fill="#203C89"/>
<path d="M277.644 112.639V82.7124H288.794V112.639H277.644Z" fill="#203C89"/>
<path d="M132.538 61.3365V21.4351H163.248C167.442 21.4351 170.598 22.3732 172.707 24.2614C174.827 26.1377 175.876 28.6435 175.876 31.7548C175.876 33.3105 175.554 34.7831 174.899 36.1725C174.256 37.5619 173.172 38.7495 171.671 39.7351C170.17 40.7208 168.121 41.4095 165.524 41.7896V42.9296C168.121 43.3096 170.17 43.8559 171.671 44.5803C173.172 45.3047 174.256 46.2904 174.899 47.5492C175.542 48.808 175.876 50.4349 175.876 52.4537V61.3484H159.52V54.1044C159.52 51.4443 158.186 50.1143 155.517 50.1143H148.882V61.3484H132.538V61.3365ZM148.894 38.5951H157.304C158.031 38.5951 158.603 38.3576 159.019 37.8825C159.436 37.4075 159.651 36.8138 159.651 36.0894C159.651 35.3293 159.436 34.7237 159.019 34.2605C158.603 33.8093 158.031 33.5718 157.304 33.5718H148.894V38.5951Z" fill="black"/>
<path d="M178.627 50.5654V39.6162H202.643V50.5654H178.627Z" fill="black"/>
<path d="M212.244 61.3365V34.6643H200.463V21.4351H239.977V34.6643H228.255V61.3365H212.244Z" fill="black"/>
<path d="M254.498 62.2511C250.948 62.2511 247.815 61.6573 245.087 60.4817C242.359 59.306 240.227 57.6553 238.678 55.5534C237.129 53.4514 236.367 51.0407 236.367 48.345V45.8392C236.367 43.1435 237.141 40.7447 238.678 38.6546C240.227 36.5645 242.359 34.9257 245.087 33.7263C247.815 32.5269 250.948 31.9331 254.498 31.9331C258.048 31.9331 261.181 32.5269 263.909 33.7263C266.637 34.9257 268.769 36.5645 270.318 38.6546C271.866 40.7447 272.629 43.1435 272.629 45.8392V48.345C272.629 51.0407 271.854 53.4514 270.318 55.5534C268.781 57.6553 266.637 59.306 263.909 60.4817C261.181 61.6573 258.048 62.2511 254.498 62.2511ZM254.498 51.9313C255.606 51.9313 256.523 51.5751 257.238 50.8744C257.964 50.1738 258.322 49.3306 258.322 48.3331V45.8274C258.322 44.8417 257.964 43.9986 257.238 43.286C256.511 42.5854 255.594 42.2291 254.498 42.2291C253.426 42.2291 252.52 42.5854 251.782 43.286C251.043 43.9867 250.662 44.8298 250.662 45.8274V48.3331C250.662 49.3188 251.031 50.1619 251.782 50.8744C252.532 51.587 253.438 51.9313 254.498 51.9313Z" fill="black"/>
<path d="M275.488 72.7368V32.8353H289.783V38.1318H290.235C291.224 36.1129 292.582 34.581 294.297 33.5122C296.013 32.4434 297.978 31.9209 300.182 31.9209C302.624 31.9209 304.804 32.5147 306.734 33.6903C308.664 34.866 310.189 36.5048 311.308 38.5949C312.428 40.685 313 43.0957 313 45.8389V48.3446C313 51.0404 312.44 53.4392 311.308 55.5293C310.189 57.6193 308.664 59.2582 306.734 60.4576C304.804 61.657 302.624 62.2508 300.182 62.2508C298.014 62.2508 296.072 61.7164 294.381 60.6595C292.689 59.5907 291.343 58.1656 290.354 56.3843V72.7487H275.488V72.7368ZM294.297 51.931C295.405 51.931 296.334 51.5748 297.097 50.8741C297.859 50.1735 298.24 49.3303 298.24 48.3328V45.827C298.24 44.8414 297.859 43.9982 297.097 43.2857C296.334 42.585 295.405 42.2288 294.297 42.2288C293.154 42.2288 292.213 42.585 291.462 43.2857C290.724 43.9863 290.343 44.8295 290.343 45.827V48.3328C290.343 49.3184 290.712 50.1616 291.462 50.8741C292.213 51.5866 293.154 51.931 294.297 51.931Z" fill="black"/>
<path d="M130.775 112.639V82.7124H146.083C149.537 82.7124 152.599 83.2943 155.243 84.47C157.888 85.6338 159.961 87.2607 161.462 89.327C162.962 91.3933 163.713 93.7684 163.713 96.4404V98.9224C163.713 101.606 162.962 103.969 161.462 106.036C159.961 108.102 157.888 109.717 155.243 110.893C152.599 112.057 149.549 112.65 146.083 112.65H130.775V112.639ZM142.783 102.972H146.083C147.512 102.972 148.703 102.556 149.668 101.737C150.621 100.906 151.11 99.8962 151.11 98.6967V96.6423C151.11 95.4429 150.633 94.4335 149.668 93.6022C148.715 92.7709 147.512 92.3671 146.083 92.3671H142.783V102.972Z" fill="white"/>
<path d="M166.87 89.1251V82.7124H178.711V89.1251H166.87ZM167.215 112.639V91.2627H178.365V112.639H167.215Z" fill="white"/>
<path d="M190.111 111.783C188.312 111.783 186.68 111.332 185.227 110.441C183.774 109.539 182.618 108.316 181.772 106.748C180.926 105.181 180.51 103.387 180.51 101.357V101.012C180.51 98.9578 180.926 97.1527 181.772 95.5852C182.618 94.0176 183.762 92.7944 185.227 91.9038C186.68 91.025 188.312 90.5737 190.111 90.5737C191.767 90.5737 193.244 90.9775 194.53 91.7732C195.817 92.5688 196.83 93.7207 197.58 95.2408H197.926V91.2625H208.647V112.341C208.647 114.253 208.087 115.928 206.979 117.365C205.859 118.802 204.287 119.918 202.238 120.702C200.189 121.486 197.771 121.877 194.971 121.877C191.088 121.877 187.967 121.236 185.62 119.954C183.273 118.671 181.856 116.866 181.379 114.526L191.624 113.161C191.886 113.731 192.267 114.182 192.779 114.503C193.292 114.823 193.863 114.99 194.495 114.99C195.186 114.99 195.853 114.812 196.508 114.455C197.163 114.099 197.497 113.398 197.497 112.341V107.377C196.758 108.719 195.746 109.788 194.471 110.584C193.196 111.391 191.743 111.783 190.111 111.783ZM194.53 104.052C195.388 104.052 196.091 103.791 196.651 103.257C197.211 102.734 197.485 102.093 197.485 101.357V101.012C197.485 100.276 197.211 99.6347 196.651 99.1122C196.091 98.5897 195.388 98.3165 194.53 98.3165C193.732 98.3165 193.041 98.5778 192.446 99.1122C191.862 99.6347 191.564 100.276 191.564 101.012V101.357C191.564 102.093 191.862 102.734 192.446 103.257C193.041 103.779 193.732 104.052 194.53 104.052Z" fill="white"/>
<path d="M211.22 89.1251V82.7124H223.061V89.1251H211.22ZM211.553 112.639V91.2627H222.703V112.639H211.553Z" fill="white"/>
<path d="M224.729 99.3855V91.2627H228.159V86.9876L239.31 82.7124V91.2627H245.099V99.3855H239.31V102.972C239.31 103.768 239.536 104.338 240 104.682C240.453 105.026 241.013 105.193 241.668 105.193C242.216 105.193 242.788 105.109 243.384 104.931C243.979 104.753 244.551 104.551 245.099 104.29V111.855C243.812 112.342 242.55 112.698 241.299 112.947C240.06 113.185 238.857 113.315 237.713 113.315C235.879 113.315 234.247 112.995 232.805 112.353C231.364 111.712 230.22 110.738 229.398 109.444C228.564 108.15 228.159 106.546 228.159 104.634V99.3736H224.729V99.3855Z" fill="white"/>
<path d="M256.201 113.327C254.403 113.327 252.771 112.888 251.317 111.997C249.864 111.119 248.708 109.884 247.863 108.304C247.017 106.725 246.6 104.92 246.6 102.901V101.024C246.6 98.97 247.017 97.1649 247.863 95.5974C248.708 94.0298 249.852 92.8066 251.317 91.916C252.771 91.0372 254.403 90.5859 256.201 90.5859C257.857 90.5859 259.334 90.9897 260.621 91.7854C261.907 92.581 262.92 93.7329 263.67 95.253H264.016V91.2747H274.737V112.651H264.016V108.66H263.67C262.932 110.169 261.907 111.32 260.621 112.128C259.334 112.924 257.857 113.327 256.201 113.327ZM260.621 105.585C261.479 105.585 262.181 105.323 262.741 104.789C263.301 104.266 263.575 103.625 263.575 102.889V101.013C263.575 100.276 263.301 99.635 262.741 99.1125C262.181 98.59 261.479 98.3169 260.621 98.3169C259.823 98.3169 259.132 98.5781 258.536 99.1125C257.952 99.635 257.655 100.276 257.655 101.013V102.889C257.655 103.625 257.952 104.266 258.536 104.789C259.12 105.323 259.823 105.585 260.621 105.585Z" fill="white"/>
<path d="M277.644 112.639V82.7124H288.794V112.639H277.644Z" fill="white"/>
</g>
<defs>
<clipPath id="clip0_21_462">
<rect width="313" height="135" fill="white"/>
</clipPath>
</defs>
</svg>
