<svg width="424" height="94" viewBox="0 0 424 94" fill="none" xmlns="http://www.w3.org/2000/svg">
<g clip-path="url(#clip0_17_118)">
<path d="M44.6 75.58C39.19 76.77 33.72 77.39 28.17 77.08C20.86 76.67 14 74.88 8.06004 70.35C-0.649962 63.72 -2.46996 54.06 3.42004 44.83C7.13004 39.01 12.64 35.33 18.89 32.47C18.38 33.37 18.37 33.35 17.44 33.97C13.68 36.49 10.63 39.66 8.59004 43.74C5.40004 50.11 7.62004 56.16 12.13 60.3C16.78 64.57 22.47 66.51 28.55 67.25C42 68.89 54.51 66.12 65.88 58.66C69.64 56.19 72.82 53.08 74.94 49.06C77.22 44.73 77.85 40.22 75.99 35.54C75.89 35.29 75.86 35.02 75.8 34.75C76.48 34.54 76.69 35.05 76.97 35.34C83.1 41.43 84.19 49.28 79.96 57.85C77.16 63.52 72.99 68.12 68.1 72.04C57.91 80.21 46.38 85.57 33.58 88.17C32.52 88.39 31.44 88.47 30.36 88.59C29.78 88.65 29.17 88.67 28.84 88.08C28.51 87.49 28.87 86.95 29.2 86.51C30.79 84.38 32.85 82.75 34.98 81.23C38.01 79.07 41.2 77.2 44.6 75.58Z" fill="url(#paint0_linear_17_118)"/>
<path d="M9.27005 88.0301C5.25005 88.0401 5.25005 88.0401 5.92005 84.1101C6.57005 80.3601 6.57005 80.3601 10.43 80.3701C14.51 80.3801 14.49 80.3701 13.84 84.4701C13.21 88.5301 13.49 87.9901 9.27005 88.0301Z" fill="url(#paint1_linear_17_118)"/>
<path d="M17.3801 93.89C14.4501 93.89 14.4501 93.89 14.9401 91.04C15.4101 88.31 15.4101 88.31 18.2301 88.32C21.2001 88.33 21.1901 88.32 20.7201 91.31C20.2501 94.25 20.4501 93.86 17.3801 93.89Z" fill="url(#paint2_linear_17_118)"/>
<path d="M22.68 85.46C19.48 85.47 19.48 85.47 20.02 82.35C20.53 79.37 20.53 79.37 23.61 79.38C26.85 79.39 26.84 79.38 26.32 82.64C25.81 85.85 26.04 85.43 22.68 85.46Z" fill="url(#paint3_linear_17_118)"/>
<path d="M75.19 0.760007C61.78 5.13001 50.29 12.11 41.53 22.72L34.58 24.69C34.43 24.73 34.3 24.78 34.16 24.83C32.49 25.33 30.91 25.84 29.36 26.44C28.36 26.82 27.69 27.6 27.09 28.45C23.46 33.56 19.82 38.67 16.21 43.79C15.86 44.29 15.27 44.76 15.41 45.65C19.59 44.49 23.65 43.37 27.7 42.23C28.78 41.92 29.73 41.62 30.54 42.87C31.34 44.11 30.89 44.96 30.1 45.91C28.4 47.98 26.74 50.08 25.1 52.2C23.89 53.75 24 53.97 25.88 54.27C27.87 54.59 29.86 54.41 31.86 54.44C33.91 54.47 34.17 54.87 33.43 56.83C32.76 58.6 31.7 60.16 30.76 61.79C29.91 63.26 29.98 63.41 31.6 63.42C33.54 63.44 35.48 63.38 37.42 63.43C38.65 63.46 39.61 63.03 40.49 62.2C42.26 60.5 44.07 58.86 45.86 57.17C46.48 56.58 47.12 56.19 48 56.58C48.85 56.96 48.64 57.72 48.61 58.37C48.53 60.16 48.37 61.95 48.23 64.03C53.12 61.24 57.76 58.61 62.39 55.94C63.23 55.46 63.57 54.6 63.82 53.69C64.49 51.19 64.71 48.64 64.8 46.08C64.85 44.76 65.24 43.72 66.1 42.69C75.35 31.63 79.66 18.71 80.21 4.45001C80.36 -0.289993 79.75 -0.729993 75.19 0.760007ZM64.34 25.34C61.14 25.32 58.93 23.06 58.91 19.81C58.89 16.5 61.27 14.1 64.58 14.1C67.82 14.09 70.18 16.42 70.23 19.67C70.28 22.98 67.81 25.36 64.34 25.34Z" fill="url(#paint4_linear_17_118)"/>
<path d="M102.24 58.95V25.35H128.02C131.54 25.35 134.19 26.14 135.96 27.73C137.74 29.31 138.62 31.42 138.62 34.04C138.62 35.35 138.35 36.59 137.8 37.76C137.26 38.93 136.35 39.93 135.09 40.76C133.83 41.59 132.11 42.17 129.93 42.49V43.45C132.11 43.77 133.83 44.23 135.09 44.84C136.35 45.45 137.26 46.28 137.8 47.34C138.34 48.4 138.62 49.77 138.62 51.47V58.96H124.9V52.86C124.9 50.62 123.78 49.5 121.54 49.5H115.97V58.96H102.24V58.95ZM115.97 39.79H123.03C123.64 39.79 124.12 39.59 124.47 39.19C124.82 38.79 125 38.29 125 37.68C125 37.04 124.82 36.53 124.47 36.14C124.12 35.76 123.64 35.56 123.03 35.56H115.97V39.79Z" fill="url(#paint5_linear_17_118)"/>
<path d="M140.93 49.87V40.65H161.09V49.87H140.93Z" fill="url(#paint6_linear_17_118)"/>
<path d="M169.16 58.95V36.48H159.27V25.35H192.44V36.49H182.6V58.95H169.16Z" fill="url(#paint7_linear_17_118)"/>
<path d="M204.63 59.7099C201.65 59.7099 199.02 59.2099 196.73 58.2199C194.44 57.2299 192.65 55.8399 191.35 54.0699C190.05 52.2999 189.41 50.2699 189.41 47.9999V45.8899C189.41 43.6199 190.06 41.5999 191.35 39.8399C192.65 38.0799 194.44 36.6999 196.73 35.6899C199.02 34.6799 201.65 34.1799 204.63 34.1799C207.61 34.1799 210.24 34.6799 212.53 35.6899C214.82 36.6999 216.61 38.0799 217.91 39.8399C219.21 41.5999 219.85 43.6199 219.85 45.8899V47.9999C219.85 50.2699 219.2 52.2999 217.91 54.0699C216.62 55.8399 214.82 57.2299 212.53 58.2199C210.24 59.2199 207.6 59.7099 204.63 59.7099ZM204.63 51.0299C205.56 51.0299 206.33 50.7299 206.93 50.1399C207.54 49.5499 207.84 48.8399 207.84 47.9999V45.8899C207.84 45.0599 207.54 44.3499 206.93 43.7499C206.32 43.1599 205.55 42.8599 204.63 42.8599C203.73 42.8599 202.97 43.1599 202.35 43.7499C201.73 44.3399 201.41 45.0499 201.41 45.8899V47.9999C201.41 48.8299 201.72 49.5399 202.35 50.1399C202.97 50.7299 203.73 51.0299 204.63 51.0299Z" fill="url(#paint8_linear_17_118)"/>
<path d="M222.24 68.5499V34.9499H234.24V39.4099H234.62C235.45 37.7099 236.59 36.4199 238.03 35.5199C239.47 34.6199 241.12 34.1799 242.97 34.1799C245.02 34.1799 246.85 34.6799 248.47 35.6699C250.09 36.6599 251.37 38.0399 252.31 39.7999C253.25 41.5599 253.73 43.5899 253.73 45.8999V47.9999C253.73 50.2699 253.26 52.2899 252.31 54.0499C251.37 55.8099 250.09 57.1899 248.47 58.1999C246.85 59.2099 245.02 59.7099 242.97 59.7099C241.15 59.7099 239.52 59.2599 238.1 58.3699C236.68 57.4699 235.55 56.2699 234.72 54.7699V68.5499H222.24ZM238.04 51.0299C238.97 51.0299 239.75 50.7299 240.39 50.1399C241.03 49.5499 241.35 48.8399 241.35 47.9999V45.8899C241.35 45.0599 241.03 44.3499 240.39 43.7499C239.75 43.1599 238.97 42.8599 238.04 42.8599C237.08 42.8599 236.29 43.1599 235.66 43.7499C235.04 44.3399 234.72 45.0499 234.72 45.8899V47.9999C234.72 48.8299 235.03 49.5399 235.66 50.1399C236.28 50.7299 237.08 51.0299 238.04 51.0299Z" fill="url(#paint9_linear_17_118)"/>
<path d="M267.57 60.2099V30.3099H282.82C286.27 30.3099 289.31 30.8899 291.94 32.0599C294.57 33.2299 296.64 34.8399 298.14 36.9099C299.64 38.9799 300.38 41.3499 300.38 44.0199V46.4999C300.38 49.1799 299.63 51.5499 298.14 53.6099C296.64 55.6799 294.58 57.2899 291.94 58.4599C289.31 59.6299 286.26 60.2099 282.82 60.2099H267.57ZM279.53 50.5599H282.82C284.24 50.5599 285.43 50.1499 286.39 49.3199C287.34 48.4899 287.82 47.4799 287.82 46.2899V44.2399C287.82 43.0399 287.34 42.0299 286.39 41.2099C285.43 40.3799 284.25 39.9699 282.82 39.9699H279.53V50.5599Z" fill="url(#paint10_linear_17_118)"/>
<path d="M302.35 36.7099V30.2999H314.14V36.7099H302.35ZM302.69 60.2099V38.8499H313.8V60.2099H302.69Z" fill="url(#paint11_linear_17_118)"/>
<path d="M325.51 59.3599C323.72 59.3599 322.09 58.9099 320.64 58.0099C319.19 57.1099 318.04 55.8799 317.2 54.3099C316.36 52.7399 315.94 50.9499 315.94 48.9299V48.5899C315.94 46.5399 316.36 44.7299 317.2 43.1599C318.04 41.5899 319.19 40.3699 320.64 39.4899C322.09 38.6099 323.72 38.1699 325.51 38.1699C327.16 38.1699 328.63 38.5699 329.91 39.3699C331.19 40.1699 332.2 41.3199 332.94 42.8299H333.28V38.8599H343.96V59.9199C343.96 61.8299 343.4 63.4999 342.29 64.9399C341.18 66.3799 339.6 67.4899 337.57 68.2699C335.53 69.0499 333.12 69.4399 330.33 69.4399C326.46 69.4399 323.35 68.7999 321.02 67.5199C318.68 66.2399 317.27 64.4299 316.79 62.0899L327 60.7299C327.26 61.2999 327.64 61.7499 328.15 62.0799C328.66 62.4099 329.23 62.5699 329.86 62.5699C330.54 62.5699 331.21 62.3899 331.87 62.0399C332.52 61.6799 332.85 60.9799 332.85 59.9299V54.9699C332.11 56.3099 331.1 57.3799 329.84 58.1699C328.57 58.9599 327.13 59.3599 325.51 59.3599ZM329.91 51.6299C330.77 51.6299 331.47 51.3699 332.03 50.8399C332.59 50.3099 332.86 49.6799 332.86 48.9399V48.5999C332.86 47.8599 332.58 47.2299 332.03 46.6999C331.47 46.1699 330.77 45.9099 329.91 45.9099C329.11 45.9099 328.42 46.1699 327.84 46.6999C327.26 47.2299 326.96 47.8599 326.96 48.5999V48.9399C326.96 49.6799 327.25 50.3099 327.84 50.8399C328.42 51.3599 329.11 51.6299 329.91 51.6299Z" fill="url(#paint12_linear_17_118)"/>
<path d="M346.53 36.7099V30.2999H358.32V36.7099H346.53ZM346.87 60.2099V38.8499H357.98V60.2099H346.87Z" fill="url(#paint13_linear_17_118)"/>
<path d="M359.99 46.9699V38.8499H363.41V34.5799L374.52 30.3099V38.8599H380.29V46.9799H374.52V50.5699C374.52 51.3699 374.75 51.9399 375.2 52.2799C375.66 52.6199 376.21 52.7899 376.87 52.7899C377.41 52.7899 377.98 52.6999 378.58 52.5299C379.18 52.3599 379.75 52.1499 380.29 51.8899V59.4499C379.01 59.9299 377.75 60.2999 376.51 60.5399C375.27 60.7799 374.08 60.8999 372.94 60.8999C371.12 60.8999 369.49 60.5799 368.05 59.9399C366.61 59.2999 365.48 58.3299 364.65 57.0299C363.82 55.7299 363.41 54.1299 363.41 52.2199V46.9599H359.99V46.9699Z" fill="url(#paint14_linear_17_118)"/>
<path d="M391.35 60.8999C389.56 60.8999 387.93 60.4599 386.48 59.5799C385.03 58.6999 383.88 57.4699 383.04 55.8799C382.2 54.2999 381.78 52.4999 381.78 50.4699V48.5899C381.78 46.5399 382.2 44.7299 383.04 43.1599C383.88 41.5899 385.03 40.3699 386.48 39.4899C387.93 38.6099 389.56 38.1699 391.35 38.1699C393 38.1699 394.47 38.5699 395.75 39.3699C397.03 40.1699 398.04 41.3199 398.78 42.8299H399.12V38.8599H409.8V60.2199H399.12V56.2499H398.78C398.04 57.7599 397.03 58.9099 395.75 59.7099C394.46 60.4999 393 60.8999 391.35 60.8999ZM395.75 53.1599C396.6 53.1599 397.31 52.8999 397.87 52.3699C398.43 51.8399 398.7 51.2099 398.7 50.4699V48.5899C398.7 47.8499 398.42 47.2199 397.87 46.6899C397.31 46.1599 396.61 45.8999 395.75 45.8999C394.95 45.8999 394.26 46.1599 393.68 46.6899C393.1 47.2199 392.8 47.8499 392.8 48.5899V50.4699C392.8 51.2099 393.09 51.8399 393.68 52.3699C394.26 52.8999 394.95 53.1599 395.75 53.1599Z" fill="url(#paint15_linear_17_118)"/>
<path d="M412.71 60.2099V30.3099H423.82V60.2199H412.71V60.2099Z" fill="url(#paint16_linear_17_118)"/>
<path d="M102.24 58.95V25.35H128.02C131.54 25.35 134.19 26.14 135.96 27.73C137.74 29.31 138.62 31.42 138.62 34.04C138.62 35.35 138.35 36.59 137.8 37.76C137.26 38.93 136.35 39.93 135.09 40.76C133.83 41.59 132.11 42.17 129.93 42.49V43.45C132.11 43.77 133.83 44.23 135.09 44.84C136.35 45.45 137.26 46.28 137.8 47.34C138.34 48.4 138.62 49.77 138.62 51.47V58.96H124.9V52.86C124.9 50.62 123.78 49.5 121.54 49.5H115.97V58.96H102.24V58.95ZM115.97 39.79H123.03C123.64 39.79 124.12 39.59 124.47 39.19C124.82 38.79 125 38.29 125 37.68C125 37.04 124.82 36.53 124.47 36.14C124.12 35.76 123.64 35.56 123.03 35.56H115.97V39.79Z" fill="black"/>
<path d="M140.93 49.87V40.65H161.09V49.87H140.93Z" fill="black"/>
<path d="M169.16 58.95V36.48H159.27V25.35H192.44V36.49H182.6V58.95H169.16Z" fill="black"/>
<path d="M204.63 59.7099C201.65 59.7099 199.02 59.2099 196.73 58.2199C194.44 57.2299 192.65 55.8399 191.35 54.0699C190.05 52.2999 189.41 50.2699 189.41 47.9999V45.8899C189.41 43.6199 190.06 41.5999 191.35 39.8399C192.65 38.0799 194.44 36.6999 196.73 35.6899C199.02 34.6799 201.65 34.1799 204.63 34.1799C207.61 34.1799 210.24 34.6799 212.53 35.6899C214.82 36.6999 216.61 38.0799 217.91 39.8399C219.21 41.5999 219.85 43.6199 219.85 45.8899V47.9999C219.85 50.2699 219.2 52.2999 217.91 54.0699C216.62 55.8399 214.82 57.2299 212.53 58.2199C210.24 59.2199 207.6 59.7099 204.63 59.7099ZM204.63 51.0299C205.56 51.0299 206.33 50.7299 206.93 50.1399C207.54 49.5499 207.84 48.8399 207.84 47.9999V45.8899C207.84 45.0599 207.54 44.3499 206.93 43.7499C206.32 43.1599 205.55 42.8599 204.63 42.8599C203.73 42.8599 202.97 43.1599 202.35 43.7499C201.73 44.3399 201.41 45.0499 201.41 45.8899V47.9999C201.41 48.8299 201.72 49.5399 202.35 50.1399C202.97 50.7299 203.73 51.0299 204.63 51.0299Z" fill="black"/>
<path d="M222.24 68.5499V34.9499H234.24V39.4099H234.62C235.45 37.7099 236.59 36.4199 238.03 35.5199C239.47 34.6199 241.12 34.1799 242.97 34.1799C245.02 34.1799 246.85 34.6799 248.47 35.6699C250.09 36.6599 251.37 38.0399 252.31 39.7999C253.25 41.5599 253.73 43.5899 253.73 45.8999V47.9999C253.73 50.2699 253.26 52.2899 252.31 54.0499C251.37 55.8099 250.09 57.1899 248.47 58.1999C246.85 59.2099 245.02 59.7099 242.97 59.7099C241.15 59.7099 239.52 59.2599 238.1 58.3699C236.68 57.4699 235.55 56.2699 234.72 54.7699V68.5499H222.24ZM238.04 51.0299C238.97 51.0299 239.75 50.7299 240.39 50.1399C241.03 49.5499 241.35 48.8399 241.35 47.9999V45.8899C241.35 45.0599 241.03 44.3499 240.39 43.7499C239.75 43.1599 238.97 42.8599 238.04 42.8599C237.08 42.8599 236.29 43.1599 235.66 43.7499C235.04 44.3399 234.72 45.0499 234.72 45.8899V47.9999C234.72 48.8299 235.03 49.5399 235.66 50.1399C236.28 50.7299 237.08 51.0299 238.04 51.0299Z" fill="black"/>
<path d="M267.57 60.2099V30.3099H282.82C286.27 30.3099 289.31 30.8899 291.94 32.0599C294.57 33.2299 296.64 34.8399 298.14 36.9099C299.64 38.9799 300.38 41.3499 300.38 44.0199V46.4999C300.38 49.1799 299.63 51.5499 298.14 53.6099C296.64 55.6799 294.58 57.2899 291.94 58.4599C289.31 59.6299 286.26 60.2099 282.82 60.2099H267.57ZM279.53 50.5599H282.82C284.24 50.5599 285.43 50.1499 286.39 49.3199C287.34 48.4899 287.82 47.4799 287.82 46.2899V44.2399C287.82 43.0399 287.34 42.0299 286.39 41.2099C285.43 40.3799 284.25 39.9699 282.82 39.9699H279.53V50.5599Z" fill="#165AA4"/>
<path d="M302.35 36.7099V30.2999H314.14V36.7099H302.35ZM302.69 60.2099V38.8499H313.8V60.2099H302.69Z" fill="#165AA4"/>
<path d="M325.51 59.3599C323.72 59.3599 322.09 58.9099 320.64 58.0099C319.19 57.1099 318.04 55.8799 317.2 54.3099C316.36 52.7399 315.94 50.9499 315.94 48.9299V48.5899C315.94 46.5399 316.36 44.7299 317.2 43.1599C318.04 41.5899 319.19 40.3699 320.64 39.4899C322.09 38.6099 323.72 38.1699 325.51 38.1699C327.16 38.1699 328.63 38.5699 329.91 39.3699C331.19 40.1699 332.2 41.3199 332.94 42.8299H333.28V38.8599H343.96V59.9199C343.96 61.8299 343.4 63.4999 342.29 64.9399C341.18 66.3799 339.6 67.4899 337.57 68.2699C335.53 69.0499 333.12 69.4399 330.33 69.4399C326.46 69.4399 323.35 68.7999 321.02 67.5199C318.68 66.2399 317.27 64.4299 316.79 62.0899L327 60.7299C327.26 61.2999 327.64 61.7499 328.15 62.0799C328.66 62.4099 329.23 62.5699 329.86 62.5699C330.54 62.5699 331.21 62.3899 331.87 62.0399C332.52 61.6799 332.85 60.9799 332.85 59.9299V54.9699C332.11 56.3099 331.1 57.3799 329.84 58.1699C328.57 58.9599 327.13 59.3599 325.51 59.3599ZM329.91 51.6299C330.77 51.6299 331.47 51.3699 332.03 50.8399C332.59 50.3099 332.86 49.6799 332.86 48.9399V48.5999C332.86 47.8599 332.58 47.2299 332.03 46.6999C331.47 46.1699 330.77 45.9099 329.91 45.9099C329.11 45.9099 328.42 46.1699 327.84 46.6999C327.26 47.2299 326.96 47.8599 326.96 48.5999V48.9399C326.96 49.6799 327.25 50.3099 327.84 50.8399C328.42 51.3599 329.11 51.6299 329.91 51.6299Z" fill="#165AA4"/>
<path d="M346.53 36.7099V30.2999H358.32V36.7099H346.53ZM346.87 60.2099V38.8499H357.98V60.2099H346.87Z" fill="#165AA4"/>
<path d="M359.99 46.9699V38.8499H363.41V34.5799L374.52 30.3099V38.8599H380.29V46.9799H374.52V50.5699C374.52 51.3699 374.75 51.9399 375.2 52.2799C375.66 52.6199 376.21 52.7899 376.87 52.7899C377.41 52.7899 377.98 52.6999 378.58 52.5299C379.18 52.3599 379.75 52.1499 380.29 51.8899V59.4499C379.01 59.9299 377.75 60.2999 376.51 60.5399C375.27 60.7799 374.08 60.8999 372.94 60.8999C371.12 60.8999 369.49 60.5799 368.05 59.9399C366.61 59.2999 365.48 58.3299 364.65 57.0299C363.82 55.7299 363.41 54.1299 363.41 52.2199V46.9599H359.99V46.9699Z" fill="#165AA4"/>
<path d="M391.35 60.8999C389.56 60.8999 387.93 60.4599 386.48 59.5799C385.03 58.6999 383.88 57.4699 383.04 55.8799C382.2 54.2999 381.78 52.4999 381.78 50.4699V48.5899C381.78 46.5399 382.2 44.7299 383.04 43.1599C383.88 41.5899 385.03 40.3699 386.48 39.4899C387.93 38.6099 389.56 38.1699 391.35 38.1699C393 38.1699 394.47 38.5699 395.75 39.3699C397.03 40.1699 398.04 41.3199 398.78 42.8299H399.12V38.8599H409.8V60.2199H399.12V56.2499H398.78C398.04 57.7599 397.03 58.9099 395.75 59.7099C394.46 60.4999 393 60.8999 391.35 60.8999ZM395.75 53.1599C396.6 53.1599 397.31 52.8999 397.87 52.3699C398.43 51.8399 398.7 51.2099 398.7 50.4699V48.5899C398.7 47.8499 398.42 47.2199 397.87 46.6899C397.31 46.1599 396.61 45.8999 395.75 45.8999C394.95 45.8999 394.26 46.1599 393.68 46.6899C393.1 47.2199 392.8 47.8499 392.8 48.5899V50.4699C392.8 51.2099 393.09 51.8399 393.68 52.3699C394.26 52.8999 394.95 53.1599 395.75 53.1599Z" fill="#165AA4"/>
<path d="M412.71 60.2099V30.3099H423.82V60.2199H412.71V60.2099Z" fill="#165AA4"/>
</g>
<defs>
<linearGradient id="paint0_linear_17_118" x1="3.76115e-05" y1="60.5518" x2="82.5066" y2="60.5518" gradientUnits="userSpaceOnUse">
<stop offset="1.24826e-07" stop-color="#EE7116"/>
<stop offset="1" stop-color="#F9AE17"/>
</linearGradient>
<linearGradient id="paint1_linear_17_118" x1="5.58725" y1="84.2078" x2="14.1689" y2="84.2078" gradientUnits="userSpaceOnUse">
<stop stop-color="#EE7116"/>
<stop offset="1" stop-color="#EE7316"/>
</linearGradient>
<linearGradient id="paint2_linear_17_118" x1="14.6935" y1="91.1006" x2="20.9467" y2="91.1006" gradientUnits="userSpaceOnUse">
<stop stop-color="#0B4C98"/>
<stop offset="1" stop-color="#0B4C98"/>
</linearGradient>
<linearGradient id="paint3_linear_17_118" x1="19.7552" y1="82.4209" x2="26.5747" y2="82.4209" gradientUnits="userSpaceOnUse">
<stop stop-color="#0B4C98"/>
<stop offset="1" stop-color="#0B4C98"/>
</linearGradient>
<linearGradient id="paint4_linear_17_118" x1="70.6926" y1="8.84321" x2="35.6608" y2="54.0239" gradientUnits="userSpaceOnUse">
<stop stop-color="#2788C9"/>
<stop offset="1" stop-color="#124A99"/>
</linearGradient>
<linearGradient id="paint5_linear_17_118" x1="102.244" y1="47.3938" x2="423.817" y2="47.3938" gradientUnits="userSpaceOnUse">
<stop stop-color="#203C89"/>
<stop offset="1" stop-color="#0B4C98"/>
</linearGradient>
<linearGradient id="paint6_linear_17_118" x1="102.244" y1="47.3938" x2="423.817" y2="47.3938" gradientUnits="userSpaceOnUse">
<stop stop-color="#203C89"/>
<stop offset="1" stop-color="#0B4C98"/>
</linearGradient>
<linearGradient id="paint7_linear_17_118" x1="102.244" y1="47.3938" x2="423.817" y2="47.3938" gradientUnits="userSpaceOnUse">
<stop stop-color="#203C89"/>
<stop offset="1" stop-color="#0B4C98"/>
</linearGradient>
<linearGradient id="paint8_linear_17_118" x1="102.244" y1="47.3937" x2="423.817" y2="47.3937" gradientUnits="userSpaceOnUse">
<stop stop-color="#203C89"/>
<stop offset="1" stop-color="#0B4C98"/>
</linearGradient>
<linearGradient id="paint9_linear_17_118" x1="102.244" y1="47.3937" x2="423.817" y2="47.3937" gradientUnits="userSpaceOnUse">
<stop stop-color="#203C89"/>
<stop offset="1" stop-color="#0B4C98"/>
</linearGradient>
<linearGradient id="paint10_linear_17_118" x1="102.244" y1="47.3937" x2="423.817" y2="47.3937" gradientUnits="userSpaceOnUse">
<stop stop-color="#203C89"/>
<stop offset="1" stop-color="#0B4C98"/>
</linearGradient>
<linearGradient id="paint11_linear_17_118" x1="102.244" y1="47.3937" x2="423.817" y2="47.3937" gradientUnits="userSpaceOnUse">
<stop stop-color="#203C89"/>
<stop offset="1" stop-color="#0B4C98"/>
</linearGradient>
<linearGradient id="paint12_linear_17_118" x1="102.244" y1="47.3937" x2="423.817" y2="47.3937" gradientUnits="userSpaceOnUse">
<stop stop-color="#203C89"/>
<stop offset="1" stop-color="#0B4C98"/>
</linearGradient>
<linearGradient id="paint13_linear_17_118" x1="102.244" y1="47.3937" x2="423.817" y2="47.3937" gradientUnits="userSpaceOnUse">
<stop stop-color="#203C89"/>
<stop offset="1" stop-color="#0B4C98"/>
</linearGradient>
<linearGradient id="paint14_linear_17_118" x1="102.244" y1="47.3937" x2="423.817" y2="47.3937" gradientUnits="userSpaceOnUse">
<stop stop-color="#203C89"/>
<stop offset="1" stop-color="#0B4C98"/>
</linearGradient>
<linearGradient id="paint15_linear_17_118" x1="102.245" y1="47.3937" x2="423.817" y2="47.3937" gradientUnits="userSpaceOnUse">
<stop stop-color="#203C89"/>
<stop offset="1" stop-color="#0B4C98"/>
</linearGradient>
<linearGradient id="paint16_linear_17_118" x1="102.244" y1="47.3937" x2="423.817" y2="47.3937" gradientUnits="userSpaceOnUse">
<stop stop-color="#203C89"/>
<stop offset="1" stop-color="#0B4C98"/>
</linearGradient>
<clipPath id="clip0_17_118">
<rect width="423.82" height="93.89" fill="white"/>
</clipPath>
</defs>
</svg>
