<svg width="111" height="49" viewBox="0 0 111 49" fill="none" xmlns="http://www.w3.org/2000/svg">
<g clip-path="url(#clip0_55_228)">
<path d="M22.8168 39.444C20.0497 40.0647 17.2488 40.388 14.4142 40.2285C10.6754 40.0173 7.16485 39.0776 4.12317 36.7199C-0.329504 33.263 -1.26313 28.2156 1.74897 23.4009C3.65002 20.3621 6.46357 18.444 9.66578 16.9526C9.40808 17.4225 9.39963 17.4095 8.92226 17.7371C7.00009 19.0518 5.437 20.7069 4.39354 22.8363C2.76287 26.1552 3.89927 29.3104 6.20587 31.4742C8.58007 33.7026 11.495 34.7156 14.6085 35.1035C21.4861 35.9569 27.8863 34.5173 33.7035 30.6207C35.6256 29.3319 37.2563 27.7113 38.342 25.6121C39.5122 23.3535 39.8333 21 38.8785 18.5561C38.8278 18.4268 38.8109 18.2845 38.7814 18.1423C39.1278 18.0302 39.2334 18.3018 39.3813 18.4483C42.5159 21.6294 43.0735 25.7199 40.9105 30.194C39.4784 33.1509 37.345 35.5561 34.8441 37.5992C29.6352 41.8621 23.7335 44.6595 17.1855 46.0173C16.6447 46.1294 16.0913 46.1725 15.5379 46.2371C15.2422 46.2716 14.9296 46.2759 14.7606 45.9699C14.5916 45.6595 14.7733 45.3794 14.9465 45.1466C15.7576 44.0345 16.8137 43.1854 17.9036 42.388C19.4414 41.2673 21.0763 40.2932 22.8168 39.444Z" fill="white"/>
<path d="M4.7442 45.9443C2.68685 45.9486 2.68685 45.9486 3.02904 43.9012C3.35855 41.9443 3.35855 41.9443 5.33564 41.9486C7.42257 41.9529 7.41412 41.9529 7.08038 44.0866C6.75509 46.2029 6.90295 45.9228 4.7442 45.9443Z" fill="white"/>
<path d="M8.88847 49.0003C7.38876 49.0046 7.38876 49.0046 7.64223 47.5132C7.88303 46.0908 7.88303 46.0908 9.3236 46.0908C10.8444 46.0951 10.836 46.0908 10.5952 47.6469C10.3544 49.19 10.4642 48.9831 8.88847 49.0003Z" fill="#1966AB"/>
<path d="M11.6048 44.6035C9.96994 44.6078 9.96994 44.6078 10.2445 42.9785C10.5065 41.4268 10.5065 41.4268 12.078 41.4268C13.7382 41.4311 13.7298 41.4268 13.4636 43.125C13.2017 44.8061 13.32 44.5862 11.6048 44.6035Z" fill="#1966AB"/>
<path d="M38.4603 0.396766C31.5997 2.67263 25.7233 6.31918 21.2453 11.858L17.6924 12.8881C17.6164 12.9097 17.5488 12.9356 17.477 12.9614C16.6194 13.22 15.8125 13.4916 15.0183 13.8019C14.5029 14.0002 14.1649 14.4097 13.8566 14.8537C11.9977 17.5218 10.1389 20.1856 8.2886 22.8623C8.10694 23.1252 7.807 23.3666 7.87882 23.8364C10.0164 23.2287 12.0949 22.6468 14.1649 22.0476C14.7184 21.8881 15.2042 21.733 15.614 22.3795C16.0237 23.0261 15.7914 23.47 15.3901 23.9657C14.5198 25.0476 13.6707 26.1425 12.83 27.2459C12.2132 28.0562 12.2681 28.1683 13.2271 28.3235C14.2452 28.4916 15.2633 28.3968 16.2857 28.414C17.3376 28.4312 17.4643 28.6381 17.0883 29.6597C16.7461 30.5864 16.2012 31.4011 15.7196 32.2502C15.2844 33.0175 15.3182 33.095 16.1505 33.1037C17.1432 33.1123 18.136 33.0821 19.1246 33.108C19.754 33.1252 20.2483 32.9011 20.6919 32.4657C21.5959 31.5821 22.5253 30.72 23.4378 29.8407C23.7547 29.5347 24.08 29.3278 24.532 29.5347C24.9629 29.733 24.8615 30.1295 24.8446 30.4657C24.8024 31.4011 24.7263 32.3364 24.6503 33.4183C27.1512 31.9614 29.5254 30.5864 31.8911 29.1985C32.3178 28.9485 32.4953 28.5002 32.622 28.0218C32.9642 26.72 33.074 25.3838 33.1247 24.0476C33.1501 23.358 33.3486 22.8149 33.7922 22.2761C38.5279 16.5088 40.7289 9.76315 41.0119 2.31918C41.1049 -0.150648 40.7965 -0.379096 38.4603 0.396766ZM32.9093 13.2244C31.2744 13.2114 30.1422 12.0347 30.1337 10.3364C30.1253 8.60797 31.342 7.35797 33.036 7.35366C34.692 7.34935 35.9002 8.56487 35.9256 10.2588C35.9467 11.9959 34.6878 13.2373 32.9093 13.2244Z" fill="#1966AB"/>
<path d="M47.0023 22.263V7.78027H57.8932C59.3802 7.78027 60.4997 8.12079 61.2475 8.80614C61.9995 9.48717 62.3712 10.3967 62.3712 11.526C62.3712 12.0906 62.2572 12.6251 62.0248 13.1294C61.7967 13.6337 61.4123 14.0648 60.88 14.4225C60.3477 14.7803 59.621 15.0303 58.7001 15.1682V15.582C59.621 15.7199 60.3477 15.9182 60.88 16.1811C61.4123 16.4441 61.7967 16.8018 62.0248 17.2587C62.2529 17.7156 62.3712 18.3061 62.3712 19.0389V22.2673H56.5709V19.638C56.5709 18.6725 56.0978 18.1898 55.1515 18.1898H52.7984V22.2673H47.0023V22.263ZM52.8026 14.0087H55.7852C56.0429 14.0087 56.2456 13.9225 56.3935 13.7501C56.5414 13.5777 56.6174 13.3622 56.6174 13.0992C56.6174 12.8234 56.5414 12.6035 56.3935 12.4354C56.2456 12.2717 56.0429 12.1854 55.7852 12.1854H52.8026V14.0087Z" fill="white"/>
<path d="M63.3471 18.3535V14.3794H71.8638V18.3535H63.3471Z" fill="white"/>
<path d="M75.2688 22.263V12.582H71.0907V7.78027H85.1035V12.582H80.9466V22.263H75.2688Z" fill="white"/>
<path d="M90.2532 22.5951C88.9943 22.5951 87.8833 22.3796 86.9159 21.9529C85.9484 21.5262 85.1922 20.927 84.643 20.1641C84.0939 19.4012 83.8235 18.5262 83.8235 17.5477V16.6382C83.8235 15.6598 84.0981 14.7891 84.643 14.0305C85.1922 13.2719 85.9484 12.677 86.9159 12.2417C87.8833 11.8063 88.9943 11.5908 90.2532 11.5908C91.5122 11.5908 92.6232 11.8063 93.5906 12.2417C94.5581 12.677 95.3143 13.2719 95.8634 14.0305C96.4126 14.7891 96.683 15.6598 96.683 16.6382V17.5477C96.683 18.5262 96.4084 19.4012 95.8634 20.1641C95.3185 20.927 94.5581 21.5262 93.5906 21.9529C92.6232 22.3796 91.5122 22.5951 90.2532 22.5951ZM90.2532 18.8494C90.6461 18.8494 90.9714 18.7201 91.2249 18.4658C91.4826 18.2115 91.6093 17.9055 91.6093 17.5434V16.6339C91.6093 16.2762 91.4826 15.9701 91.2249 15.7115C90.9672 15.4572 90.6419 15.3279 90.2532 15.3279C89.873 15.3279 89.552 15.4572 89.2901 15.7115C89.0281 15.9658 88.8929 16.2719 88.8929 16.6339V17.5434C88.8929 17.9012 89.0239 18.2072 89.2901 18.4658C89.5562 18.7244 89.8773 18.8494 90.2532 18.8494Z" fill="white"/>
<path d="M97.6969 26.4011V11.9183H102.766V13.8407H102.927C103.278 13.108 103.759 12.5519 104.367 12.164C104.976 11.7761 105.673 11.5864 106.454 11.5864C107.32 11.5864 108.094 11.8019 108.778 12.2287C109.462 12.6554 110.003 13.2502 110.4 14.0088C110.797 14.7675 111 15.6425 111 16.6381V17.5476C111 18.5261 110.801 19.3968 110.4 20.1554C110.003 20.914 109.462 21.5088 108.778 21.9442C108.094 22.3795 107.32 22.595 106.454 22.595C105.686 22.595 104.997 22.4011 104.397 22.0175C103.797 21.6295 103.32 21.1123 102.969 20.4657V26.4054H97.6969V26.4011ZM104.367 18.8494C104.76 18.8494 105.09 18.72 105.36 18.4657C105.631 18.2114 105.766 17.9054 105.766 17.5433V16.6338C105.766 16.2761 105.631 15.97 105.36 15.7114C105.09 15.4571 104.76 15.3278 104.367 15.3278C103.962 15.3278 103.628 15.4571 103.362 15.7114C103.1 15.9657 102.965 16.2718 102.965 16.6338V17.5433C102.965 17.9011 103.096 18.2071 103.362 18.4657C103.628 18.7244 103.962 18.8494 104.367 18.8494Z" fill="white"/>
<path d="M46.7996 40.8836V30.0215H52.2281C53.4532 30.0215 54.5389 30.2327 55.4768 30.6594C56.4146 31.0818 57.1497 31.6723 57.682 32.4223C58.2143 33.1723 58.4804 34.0344 58.4804 35.0042V35.9051C58.4804 36.8792 58.2143 37.737 57.682 38.487C57.1497 39.237 56.4146 39.8232 55.4768 40.2499C54.5389 40.6723 53.4574 40.8879 52.2281 40.8879H46.7996V40.8836ZM51.0579 37.3792H52.2281C52.735 37.3792 53.1575 37.2284 53.4997 36.931C53.8377 36.6292 54.0109 36.2629 54.0109 35.8275V35.0818C54.0109 34.6465 53.8419 34.2801 53.4997 33.9784C53.1617 33.6767 52.735 33.5301 52.2281 33.5301H51.0579V37.3792Z" fill="black"/>
<path d="M59.1775 32.3491V30.0215H63.3767V32.3491H59.1775ZM59.3 40.8836V33.1249H63.2542V40.8836H59.3Z" fill="black"/>
<path d="M67.4196 40.5733C66.7817 40.5733 66.2029 40.4095 65.6875 40.0862C65.1721 39.7586 64.7623 39.3147 64.4624 38.7457C64.1624 38.1767 64.0146 37.5259 64.0146 36.7888V36.6638C64.0146 35.9181 64.1624 35.2629 64.4624 34.694C64.7623 34.125 65.1679 33.681 65.6875 33.3578C66.2029 33.0388 66.7817 32.875 67.4196 32.875C68.0068 32.875 68.5306 33.0216 68.9869 33.3103C69.4431 33.5991 69.8022 34.0172 70.0684 34.569H70.1909V33.125H73.993V40.7759C73.993 41.4698 73.7944 42.0776 73.4015 42.5991C73.0044 43.1207 72.4468 43.5259 71.7202 43.8103C70.9935 44.0948 70.136 44.2371 69.1432 44.2371C67.766 44.2371 66.6592 44.0043 65.8269 43.5388C64.9947 43.0733 64.492 42.4181 64.323 41.569L67.9561 41.0733C68.049 41.2802 68.1842 41.444 68.3659 41.5603C68.5475 41.6767 68.7503 41.7371 68.9742 41.7371C69.2192 41.7371 69.4558 41.6724 69.6882 41.5431C69.9205 41.4138 70.0388 41.1595 70.0388 40.7759V38.9741C69.7769 39.4612 69.4178 39.8491 68.9658 40.1379C68.5137 40.431 67.9983 40.5733 67.4196 40.5733ZM68.9869 37.7672C69.291 37.7672 69.5403 37.6724 69.7389 37.4784C69.9374 37.2888 70.0346 37.056 70.0346 36.7888V36.6638C70.0346 36.3966 69.9374 36.1638 69.7389 35.9741C69.5403 35.7845 69.291 35.6853 68.9869 35.6853C68.7038 35.6853 68.4588 35.7802 68.2476 35.9741C68.0406 36.1638 67.935 36.3966 67.935 36.6638V36.7888C67.935 37.056 68.0406 37.2888 68.2476 37.4784C68.4588 37.6681 68.7038 37.7672 68.9869 37.7672Z" fill="black"/>
<path d="M74.9055 32.3491V30.0215H79.1047V32.3491H74.9055ZM75.0237 40.8836V33.1249H78.9779V40.8836H75.0237Z" fill="black"/>
<path d="M79.6961 36.0732V33.1249H80.9128V31.5732L84.867 30.0215V33.1249H86.9201V36.0732H84.867V37.3749C84.867 37.6637 84.9472 37.8706 85.112 37.9956C85.2725 38.1206 85.4711 38.181 85.7034 38.181C85.8977 38.181 86.1005 38.1508 86.3117 38.0861C86.523 38.0215 86.7258 37.9482 86.9201 37.8534V40.5991C86.4638 40.7758 86.016 40.9051 85.5725 40.9956C85.1331 41.0818 84.7064 41.1292 84.3009 41.1292C83.6503 41.1292 83.0715 41.0129 82.5603 40.7801C82.0492 40.5473 81.6436 40.1939 81.3521 39.7241C81.0564 39.2542 80.9128 38.6723 80.9128 37.9784V36.0689H79.6961V36.0732Z" fill="black"/>
<path d="M90.8574 41.1337C90.2195 41.1337 89.6407 40.9742 89.1253 40.6509C88.6099 40.332 88.2001 39.8837 87.9002 39.3104C87.6003 38.7372 87.4524 38.082 87.4524 37.3492V36.6682C87.4524 35.9225 87.6003 35.2673 87.9002 34.6984C88.2001 34.1294 88.6057 33.6854 89.1253 33.3622C89.6407 33.0432 90.2195 32.8794 90.8574 32.8794C91.4446 32.8794 91.9684 33.0259 92.4247 33.3147C92.8809 33.6035 93.24 34.0216 93.5062 34.5734H93.6287V33.1294H97.4308V40.888H93.6287V39.4397H93.5062C93.2442 39.9872 92.8809 40.4053 92.4247 40.6984C91.9684 40.9872 91.4446 41.1337 90.8574 41.1337ZM92.4247 38.3234C92.7289 38.3234 92.9781 38.2285 93.1767 38.0346C93.3752 37.8449 93.4724 37.6122 93.4724 37.3449V36.6639C93.4724 36.3966 93.3752 36.1639 93.1767 35.9742C92.9781 35.7846 92.7289 35.6854 92.4247 35.6854C92.1416 35.6854 91.8966 35.7803 91.6854 35.9742C91.4784 36.1639 91.3728 36.3966 91.3728 36.6639V37.3449C91.3728 37.6122 91.4784 37.8449 91.6854 38.0346C91.8924 38.2285 92.1416 38.3234 92.4247 38.3234Z" fill="black"/>
<path d="M98.4615 40.8836V30.0215H102.416V40.8836H98.4615Z" fill="black"/>
</g>
<defs>
<clipPath id="clip0_55_228">
<rect width="111" height="49" fill="white"/>
</clipPath>
</defs>
</svg>
