<svg width="77" height="77" viewBox="0 0 77 77" fill="none" xmlns="http://www.w3.org/2000/svg">
<g clip-path="url(#clip0_21_391)">
<path d="M38.5 52.9375C34.6709 52.9375 30.9987 51.4164 28.2911 48.7089C25.5836 46.0013 24.0625 42.3291 24.0625 38.5C24.0625 34.6709 25.5836 30.9987 28.2911 28.2911C30.9987 25.5836 34.6709 24.0625 38.5 24.0625C42.3291 24.0625 46.0013 25.5836 48.7089 28.2911C51.4164 30.9987 52.9375 34.6709 52.9375 38.5C52.9375 42.3291 51.4164 46.0013 48.7089 48.7089C46.0013 51.4164 42.3291 52.9375 38.5 52.9375ZM38.5 57.75C43.6054 57.75 48.5017 55.7219 52.1118 52.1118C55.7219 48.5017 57.75 43.6054 57.75 38.5C57.75 33.3946 55.7219 28.4983 52.1118 24.8882C48.5017 21.2781 43.6054 19.25 38.5 19.25C33.3946 19.25 28.4983 21.2781 24.8882 24.8882C21.2781 28.4983 19.25 33.3946 19.25 38.5C19.25 43.6054 21.2781 48.5017 24.8882 52.1118C28.4983 55.7219 33.3946 57.75 38.5 57.75ZM38.5 0C39.1382 0 39.7502 0.253515 40.2015 0.704774C40.6527 1.15603 40.9062 1.76807 40.9062 2.40625V12.0312C40.9062 12.6694 40.6527 13.2815 40.2015 13.7327C39.7502 14.184 39.1382 14.4375 38.5 14.4375C37.8618 14.4375 37.2498 14.184 36.7985 13.7327C36.3473 13.2815 36.0938 12.6694 36.0938 12.0312V2.40625C36.0938 1.76807 36.3473 1.15603 36.7985 0.704774C37.2498 0.253515 37.8618 0 38.5 0ZM38.5 62.5625C39.1382 62.5625 39.7502 62.816 40.2015 63.2673C40.6527 63.7185 40.9062 64.3306 40.9062 64.9688V74.5938C40.9062 75.2319 40.6527 75.844 40.2015 76.2952C39.7502 76.7465 39.1382 77 38.5 77C37.8618 77 37.2498 76.7465 36.7985 76.2952C36.3473 75.844 36.0938 75.2319 36.0938 74.5938V64.9688C36.0938 64.3306 36.3473 63.7185 36.7985 63.2673C37.2498 62.816 37.8618 62.5625 38.5 62.5625ZM77 38.5C77 39.1382 76.7465 39.7502 76.2952 40.2015C75.844 40.6527 75.2319 40.9062 74.5938 40.9062H64.9688C64.3306 40.9062 63.7185 40.6527 63.2673 40.2015C62.816 39.7502 62.5625 39.1382 62.5625 38.5C62.5625 37.8618 62.816 37.2498 63.2673 36.7985C63.7185 36.3473 64.3306 36.0938 64.9688 36.0938H74.5938C75.2319 36.0938 75.844 36.3473 76.2952 36.7985C76.7465 37.2498 77 37.8618 77 38.5ZM14.4375 38.5C14.4375 39.1382 14.184 39.7502 13.7327 40.2015C13.2815 40.6527 12.6694 40.9062 12.0312 40.9062H2.40625C1.76807 40.9062 1.15603 40.6527 0.704774 40.2015C0.253515 39.7502 0 39.1382 0 38.5C0 37.8618 0.253515 37.2498 0.704774 36.7985C1.15603 36.3473 1.76807 36.0938 2.40625 36.0938H12.0312C12.6694 36.0938 13.2815 36.3473 13.7327 36.7985C14.184 37.2498 14.4375 37.8618 14.4375 38.5ZM65.7243 11.2757C66.1754 11.7269 66.4288 12.3389 66.4288 12.9769C66.4288 13.615 66.1754 14.2269 65.7243 14.6781L58.9194 21.4878C58.6957 21.7112 58.4302 21.8884 58.138 22.0092C57.8458 22.1299 57.5327 22.192 57.2165 22.1918C56.578 22.1913 55.9658 21.9372 55.5146 21.4854C55.2912 21.2617 55.114 20.9961 54.9932 20.704C54.8725 20.4118 54.8104 20.0987 54.8106 19.7825C54.8111 19.144 55.0652 18.5318 55.517 18.0806L62.3219 11.2757C62.7731 10.8246 63.385 10.5712 64.0231 10.5712C64.6611 10.5712 65.2731 10.8246 65.7243 11.2757ZM21.483 55.517C21.9341 55.9682 22.1875 56.5802 22.1875 57.2182C22.1875 57.8563 21.9341 58.4682 21.483 58.9194L14.6781 65.7243C14.2243 66.1626 13.6165 66.4052 12.9856 66.3997C12.3547 66.3942 11.7511 66.1411 11.305 65.695C10.8589 65.2489 10.6058 64.6453 10.6003 64.0144C10.5948 63.3835 10.8374 62.7757 11.2757 62.3219L18.0806 55.517C18.5318 55.0659 19.1437 54.8125 19.7818 54.8125C20.4198 54.8125 21.0318 55.0659 21.483 55.517ZM65.7243 65.7243C65.2731 66.1754 64.6611 66.4288 64.0231 66.4288C63.385 66.4288 62.7731 66.1754 62.3219 65.7243L55.517 58.9194C55.0787 58.4656 54.8361 57.8578 54.8416 57.2269C54.8471 56.596 55.1002 55.9924 55.5463 55.5463C55.9924 55.1002 56.596 54.8471 57.2269 54.8416C57.8578 54.8361 58.4656 55.0787 58.9194 55.517L65.7243 62.3219C66.1754 62.7731 66.4288 63.385 66.4288 64.0231C66.4288 64.6611 66.1754 65.2731 65.7243 65.7243ZM21.483 21.4878C21.0318 21.9389 20.4198 22.1923 19.7818 22.1923C19.1437 22.1923 18.5318 21.9389 18.0806 21.4878L11.2757 14.6781C11.0459 14.4562 10.8626 14.1906 10.7364 13.8971C10.6103 13.6035 10.544 13.2877 10.5412 12.9682C10.5384 12.6487 10.5993 12.3319 10.7203 12.0362C10.8413 11.7405 11.0199 11.4718 11.2459 11.2459C11.4718 11.0199 11.7405 10.8413 12.0362 10.7203C12.3319 10.5993 12.6487 10.5384 12.9682 10.5412C13.2877 10.544 13.6035 10.6103 13.8971 10.7364C14.1906 10.8626 14.4562 11.0459 14.6781 11.2757L21.483 18.0806C21.7071 18.3041 21.8849 18.5696 22.0062 18.8619C22.1275 19.1543 22.1899 19.4677 22.1899 19.7842C22.1899 20.1007 22.1275 20.4141 22.0062 20.7064C21.8849 20.9988 21.7071 21.2643 21.483 21.4878Z" fill="#FFF7F7"/>
</g>
<defs>
<clipPath id="clip0_21_391">
<rect width="77" height="77" fill="white"/>
</clipPath>
</defs>
</svg>
