<svg width="32" height="32" viewBox="0 0 32 32" fill="none" xmlns="http://www.w3.org/2000/svg">
<path d="M15.9147 0C12.7866 0 9.69101 0.951795 7.08422 2.69128C4.47742 4.46359 2.42457 6.95795 1.21893 9.87897C0.0132877 12.8 -0.312564 16.0164 0.30655 19.1344C0.925664 22.2523 2.42457 25.0749 4.64035 27.3395C6.85612 29.5713 9.69101 31.1138 12.7866 31.7046C15.8822 32.3282 19.0755 32 21.9755 30.7856C24.8756 29.5713 27.352 27.5364 29.1116 24.8779C30.8712 22.2523 31.7836 19.1672 31.7836 15.9836C31.7836 11.7497 30.1218 7.68 27.124 4.66051C24.1587 1.67385 20.1182 0 15.9147 0ZM23.7351 10.9621L21.1283 23.3354C20.9328 24.2215 20.4115 24.4185 19.6946 24.0246L15.7192 21.0708L13.7315 22.9415C13.6338 23.0728 13.5035 23.1713 13.3731 23.2369C13.2428 23.3026 13.0798 23.3354 12.9169 23.3354L13.2102 19.3313L20.5418 12.6359C20.8676 12.3405 20.5418 12.2092 20.053 12.4718L11.027 18.1826L7.05163 16.9354C6.20442 16.6728 6.17184 16.0821 7.21456 15.6882L22.5295 9.68205C23.3115 9.45231 23.9632 9.87897 23.7351 10.9621Z" fill="white"/>
</svg>
