<svg width="52" height="31" viewBox="0 0 52 31" fill="none" xmlns="http://www.w3.org/2000/svg">
<path d="M31.1838 14.5094C30.2388 14.1484 30.2388 12.8028 30.1737 11.851C29.9456 8.47045 31.1186 3.31762 29.7175 1.11865C28.7074 -0.19417 23.8848 -0.0628883 20.9521 0.101214C20.1049 0.232496 19.1274 0.396599 18.4105 0.757624C17.6936 1.11865 17.0094 1.70942 17.0094 2.23455C17.0094 2.98942 18.769 2.89096 19.4206 3.90839C20.1049 4.95865 20.1049 7.28891 20.1049 9.1925C20.1049 11.3915 19.7465 14.2797 18.8667 14.411C17.4981 14.4766 16.7487 13.0981 16.0318 12.1135C14.6307 10.1115 13.2295 7.68275 12.1868 5.31968C11.6328 4.0725 11.3396 2.72686 10.5901 2.16891C9.41707 1.34839 7.29905 1.28275 5.21362 1.34839C3.35628 1.41403 0.651725 1.18429 0.0977815 2.30019C-0.325823 3.54737 0.553971 4.72891 1.04274 5.74634C3.45403 11.0304 6.02824 15.6581 9.22156 20.0233C12.1542 24.1258 14.9239 27.3751 20.333 29.0817C21.8645 29.5412 28.577 30.9197 29.913 29.0817C30.3692 28.3597 30.2714 26.7843 30.4995 25.5699C30.7276 24.3884 31.0209 23.2069 32.1614 23.1412C33.1063 23.0756 33.6277 23.8961 34.2142 24.5197C34.8659 25.1761 35.3873 25.7012 35.876 26.292C36.9839 27.4079 38.157 28.9504 39.5907 29.5412C41.5458 30.3617 44.5436 30.132 47.3459 30.0007C49.6269 29.9351 51.2887 29.4756 51.4516 28.0971C51.582 27.014 50.3763 25.5043 49.6921 24.5853C47.9325 22.3863 47.1178 21.7299 45.0976 19.7279C44.2178 18.8417 43.1099 17.8899 43.1099 16.8397C43.0447 16.1833 43.5661 15.5925 44.0549 14.9361C46.1077 11.851 48.1606 9.65198 50.0505 6.46839C50.5718 5.5166 51.8101 3.31762 51.3539 2.26737C50.8325 1.08583 47.8673 1.44686 46.0425 1.44686C43.6964 1.44686 40.6334 1.28275 40.0469 1.74224C38.939 2.49711 38.4503 3.74429 37.9289 4.95865C36.7558 7.68275 35.1592 10.4725 33.5299 12.5402C32.9434 13.2622 31.8355 14.7392 31.1838 14.5094Z" fill="white"/>
</svg>
